<?xml version="1.0" encoding="UTF-8" standalone="yes"?>
<svg version="1.1" xmlns="http://www.w3.org/2000/svg" xmlns:xlink="http://www.w3.org/1999/xlink" x="0px" y="0px" viewBox="0 0 512 512" enable-background="new 0 0 512 512" xml:space="preserve">
  <g id="bounds" display="none"><rect display="inline" fill="none" width="512" height="512"/></g><g id="Layer_2">
    <path style=" stroke:none;fill-rule:nonzero;fill:rgb(0%,0%,0%);fill-opacity:1;" d="M 345.429688 108 L 312.855469 201.714844 L 346.285156 207.714844 C 377.714844 121.808594 393.429688 72.476562 393.429688 59.714844 C 393.429688 49.046875 389.808594 43.714844 382.570312 43.714844 C 371.714844 43.714844 359.332031 65.144531 345.429688 108 Z M 260 304.285156 L 269.429688 329.429688 C 276.476562 321.429688 283.238281 315.046875 289.714844 310.285156 L 280.285156 308.714844 L 269.285156 306.714844 Z M 176.570312 48.285156 C 176.570312 66.953125 191.714844 116.570312 222 197.144531 C 225.429688 195.238281 230.09375 194.285156 236 194.285156 C 238.855469 194.285156 246 194.761719 257.429688 195.714844 L 222.855469 95.429688 C 208.570312 53.523438 196.855469 32.570312 187.714844 32.570312 C 184.09375 32.570312 181.332031 34.238281 179.429688 37.570312 C 177.523438 40.90625 176.570312 44.476562 176.570312 48.285156 Z M 154 265.144531 C 154 272 158.90625 283.332031 168.714844 299.144531 C 178.523438 314.953125 189.714844 329.523438 202.285156 342.855469 C 214.855469 356.191406 224.382812 362.855469 230.855469 362.855469 C 233.523438 362.855469 235.953125 361.617188 238.144531 359.144531 C 240.332031 356.667969 241.429688 354.09375 241.429688 351.429688 C 241.429688 346.855469 238.382812 337.144531 232.285156 322.285156 C 229.808594 316.191406 226.761719 309.332031 223.144531 301.714844 C 219.523438 294.09375 215 285.617188 209.570312 276.285156 C 204.144531 266.953125 198.285156 259.238281 192 253.144531 C 185.714844 247.046875 179.808594 244 174.285156 244 C 170.476562 244 166.144531 246.570312 161.285156 251.714844 C 156.429688 256.855469 154 261.332031 154 265.144531 Z M 108.855469 360.855469 C 108.855469 368.667969 111.238281 378.570312 116 390.570312 C 127.238281 418.191406 144.714844 439.808594 168.429688 455.429688 C 192.144531 471.046875 218.953125 478.855469 248.855469 478.855469 C 292.09375 478.855469 328.476562 462.667969 358 430.285156 C 386.953125 398.09375 401.429688 357.429688 401.429688 308.285156 C 401.429688 300.09375 401.332031 293.714844 401.144531 289.144531 C 400.953125 284.570312 399.855469 278.667969 397.855469 271.429688 C 395.855469 264.191406 392.953125 258.855469 389.144531 255.429688 C 378.476562 246.09375 358.332031 238.90625 328.714844 233.855469 C 299.09375 228.808594 273.332031 226.285156 251.429688 226.285156 C 244.382812 226.285156 239.714844 227.332031 237.429688 229.429688 C 235.144531 230.382812 234 233.714844 234 239.429688 C 234 245.90625 236.046875 251.617188 240.144531 256.570312 C 244.238281 261.523438 249.523438 265.332031 256 268 C 262.476562 270.667969 269.855469 272.90625 278.144531 274.714844 C 286.429688 276.523438 294.761719 277.617188 303.144531 278 C 311.523438 278.382812 319.617188 278.761719 327.429688 279.144531 C 335.238281 279.523438 341.90625 279.523438 347.429688 279.144531 L 354 279.144531 C 358.570312 279.144531 362.382812 280.953125 365.429688 284.570312 C 368.285156 288.191406 370.09375 293.429688 370.855469 300.285156 C 365.523438 305.617188 356.382812 310.761719 343.429688 315.714844 C 331.808594 319.90625 322.953125 324.285156 316.855469 328.855469 C 304.667969 337.617188 294.332031 348.476562 285.855469 361.429688 C 277.382812 374.382812 273.144531 387.429688 273.144531 400.570312 C 273.144531 406.476562 274.90625 414.90625 278.429688 425.855469 C 281.953125 436.808594 283.714844 445.144531 283.714844 450.855469 L 282.855469 454.285156 C 282.09375 456.570312 281.714844 457.90625 281.714844 458.285156 C 255.617188 456.382812 241.714844 435.808594 240 396.570312 C 238.476562 396.953125 234.570312 397.144531 228.285156 397.144531 C 228.667969 398.476562 228.855469 400.476562 228.855469 403.144531 C 228.855469 413.238281 225 421.761719 217.285156 428.714844 C 209.570312 435.667969 200.570312 439.144531 190.285156 439.144531 C 174.667969 439.144531 158.808594 431.714844 142.714844 416.855469 C 126.617188 402 118.570312 386.855469 118.570312 371.429688 C 118.570312 364.953125 121.714844 358.570312 128 352.285156 C 137.90625 364.476562 143.617188 371.714844 145.144531 374 C 159.808594 393.808594 172.476562 403.714844 183.144531 403.714844 C 185.429688 403.714844 187.953125 402.90625 190.714844 401.285156 C 193.476562 399.667969 194.855469 397.714844 194.855469 395.429688 C 194.855469 388.953125 186.523438 375.144531 169.855469 354 C 153.191406 332.855469 142.09375 322.285156 136.570312 322.285156 C 128.382812 322.285156 121.714844 326.523438 116.570312 335 C 111.429688 343.476562 108.855469 352.09375 108.855469 360.855469 Z M 76.285156 363.429688 C 76.285156 344.191406 80.332031 328.667969 88.429688 316.855469 C 96.523438 305.046875 109.523438 296.667969 127.429688 291.714844 C 122.09375 277.617188 119.429688 267.714844 119.429688 262 C 119.429688 250.191406 125.238281 238.476562 136.855469 226.855469 C 148.476562 215.238281 160.09375 209.429688 171.714844 209.429688 C 177.238281 209.429688 183.90625 210.855469 191.714844 213.714844 C 160.667969 125.714844 145.144531 71.714844 145.144531 51.714844 C 145.144531 36.476562 149.046875 24.046875 156.855469 14.429688 C 164.667969 4.808594 176 0 190.855469 0 C 215.808594 0 246.761719 55.332031 283.714844 166 C 284.855469 169.238281 285.617188 171.429688 286 172.570312 C 287.144531 169.523438 289.90625 161.953125 294.285156 149.855469 C 298.667969 137.761719 302.808594 126.476562 306.714844 116 C 310.617188 105.523438 315.761719 93.382812 322.144531 79.570312 C 328.523438 65.761719 334.667969 54.046875 340.570312 44.429688 C 346.476562 34.808594 353.191406 26.570312 360.714844 19.714844 C 368.238281 12.855469 375.523438 9.429688 382.570312 9.429688 C 396.09375 9.429688 406.761719 14.09375 414.570312 23.429688 C 422.382812 32.761719 426.285156 44.382812 426.285156 58.285156 C 426.285156 78.855469 411.144531 131.238281 380.855469 215.429688 C 392.476562 218.285156 402.046875 222.667969 409.570312 228.570312 C 417.09375 234.476562 422.667969 241.90625 426.285156 250.855469 C 429.90625 259.808594 432.382812 268.714844 433.714844 277.570312 C 435.046875 286.429688 435.714844 296.953125 435.714844 309.144531 C 435.714844 337.714844 431.238281 364.382812 422.285156 389.144531 C 413.332031 413.90625 400.761719 435.332031 384.570312 453.429688 C 368.382812 471.523438 348.285156 485.808594 324.285156 496.285156 C 300.285156 506.761719 273.808594 512 244.855469 512 C 223.714844 512 202.476562 508 181.144531 500 C 152.761719 489.144531 128.191406 470.90625 107.429688 445.285156 C 86.667969 419.667969 76.285156 392.382812 76.285156 363.429688 Z M 76.285156 363.429688 "/>
  </g>
</svg>