<?xml version="1.0" encoding="UTF-8" standalone="yes"?>
<svg version="1.1" xmlns="http://www.w3.org/2000/svg" xmlns:xlink="http://www.w3.org/1999/xlink" x="0px" y="0px" viewBox="0 0 512 512" enable-background="new 0 0 512 512" xml:space="preserve">
  <g id="bounds" display="none"><rect display="inline" fill="none" width="512" height="512"/></g><g id="Layer_2">
    <path style=" stroke:none;fill-rule:nonzero;fill:rgb(0%,0%,0%);fill-opacity:1;" d="M 369.144531 201.144531 C 369.144531 202.285156 370.09375 206.191406 372 212.855469 C 373.90625 218.382812 376.285156 223.09375 379.144531 227 C 382 230.90625 385.90625 234.144531 390.855469 236.714844 C 395.808594 239.285156 400 241.191406 403.429688 242.429688 C 406.855469 243.667969 412.09375 245.238281 419.144531 247.144531 C 481.046875 264.476562 512 296.09375 512 342 C 512 369.808594 501.953125 392.90625 481.855469 411.285156 C 461.761719 429.667969 437.523438 438.855469 409.144531 438.855469 C 397.90625 438.855469 387.285156 437.09375 377.285156 433.570312 C 367.285156 430.046875 358.570312 425.714844 351.144531 420.570312 C 343.714844 415.429688 336.382812 408.332031 329.144531 399.285156 C 321.90625 390.238281 315.90625 381.90625 311.144531 374.285156 C 306.382812 366.667969 301.285156 356.808594 295.855469 344.714844 C 290.429688 332.617188 286.285156 322.808594 283.429688 315.285156 C 280.570312 307.761719 276.808594 297.617188 272.144531 284.855469 C 267.476562 272.09375 264.09375 263.046875 262 257.714844 C 255.90625 242.285156 250.046875 229.570312 244.429688 219.570312 C 238.808594 209.570312 231.808594 200.382812 223.429688 192 C 215.046875 183.617188 205.144531 177.523438 193.714844 173.714844 C 182.285156 169.90625 168.761719 168 153.144531 168 C 134.855469 168 117.429688 173.285156 100.855469 183.855469 C 84.285156 194.429688 71.144531 208.191406 61.429688 225.144531 C 51.714844 242.09375 46.855469 259.714844 46.855469 278 C 46.855469 308.476562 57 335.09375 77.285156 357.855469 C 97.570312 380.617188 122.667969 392 152.570312 392 C 186.285156 392 210.855469 382.953125 226.285156 364.855469 C 236.953125 352.855469 244.855469 341.808594 250 331.714844 L 274 375.144531 C 271.144531 381.617188 266.953125 388.285156 261.429688 395.144531 L 261.714844 395.429688 C 236.761719 424.382812 199.808594 438.855469 150.855469 438.855469 C 122.855469 438.855469 97.191406 431.332031 73.855469 416.285156 C 50.523438 401.238281 32.382812 381.476562 19.429688 357 C 6.476562 332.523438 0 306.382812 0 278.570312 C 0 258.570312 4.144531 238.953125 12.429688 219.714844 C 20.714844 200.476562 31.761719 183.667969 45.570312 169.285156 C 59.382812 154.90625 75.761719 143.332031 94.714844 134.570312 C 113.667969 125.808594 133.144531 121.429688 153.144531 121.429688 C 169.714844 121.429688 184.855469 123.238281 198.570312 126.855469 C 212.285156 130.476562 224.046875 135.238281 233.855469 141.144531 C 243.667969 147.046875 252.714844 154.667969 261 164 C 269.285156 173.332031 276.191406 182.761719 281.714844 192.285156 C 287.238281 201.808594 292.808594 212.953125 298.429688 225.714844 C 304.046875 238.476562 308.855469 250.332031 312.855469 261.285156 C 316.855469 272.238281 321.617188 284.667969 327.144531 298.570312 C 332.667969 312.476562 337.90625 324.570312 342.855469 334.855469 C 361.144531 372.953125 383.332031 392 409.429688 392 C 424.855469 392 438.046875 387.382812 449 378.144531 C 459.953125 368.90625 465.429688 356.667969 465.429688 341.429688 C 465.429688 333.429688 463.617188 326.570312 460 320.855469 C 456.382812 315.144531 451.570312 310.761719 445.570312 307.714844 C 439.570312 304.667969 432.667969 301.667969 424.855469 298.714844 C 417.046875 295.761719 409 293.191406 400.714844 291 C 392.429688 288.808594 384.09375 285.570312 375.714844 281.285156 C 367.332031 277 359.617188 272.046875 352.570312 266.429688 C 345.523438 260.808594 339.332031 253 334 243 C 328.667969 233 324.953125 221.332031 322.855469 208 C 322.285156 204.953125 322 201.808594 322 198.570312 C 322 177.617188 330.332031 159.332031 347 143.714844 C 363.667969 128.09375 382.570312 120.667969 403.714844 121.429688 C 418.570312 122 430.046875 123.382812 438.144531 125.570312 C 446.238281 127.761719 454.855469 132.855469 464 140.855469 L 463.714844 140.855469 C 466 142.953125 468.191406 145.285156 470.285156 147.855469 C 472.382812 150.429688 474.855469 153.855469 477.714844 158.144531 C 480.570312 162.429688 482.382812 165.046875 483.144531 166 L 446.285156 194.285156 C 441.332031 184.953125 436.191406 178.285156 430.855469 174.285156 L 430.855469 174 C 426.476562 170 417.238281 168 403.144531 168 C 393.808594 168 385.808594 171.144531 379.144531 177.429688 C 372.476562 183.714844 369.144531 191.617188 369.144531 201.144531 Z M 369.144531 201.144531 "/>
  </g>
</svg>