<?xml version="1.0" encoding="UTF-8" standalone="yes"?>
<svg version="1.1" xmlns="http://www.w3.org/2000/svg" xmlns:xlink="http://www.w3.org/1999/xlink" x="0px" y="0px" viewBox="0 0 512 512" enable-background="new 0 0 512 512" xml:space="preserve">
  <g id="bounds" display="none"><rect display="inline" fill="none" width="512" height="512"/></g><g id="Layer_2">
    <path style=" stroke:none;fill-rule:nonzero;fill:rgb(0%,0%,0%);fill-opacity:1;" d="M 226 117.429688 C 223.90625 117.617188 222.429688 118.617188 221.570312 120.429688 C 220.714844 122.238281 219.90625 123.144531 219.144531 123.144531 C 218.191406 123.332031 217.714844 122.855469 217.714844 121.714844 C 217.714844 119.429688 219.523438 118 223.144531 117.429688 Z M 250.855469 121.429688 C 250.09375 121.617188 249 121 247.570312 119.570312 C 246.144531 118.144531 244.476562 117.714844 242.570312 118.285156 C 247.144531 116.191406 250.191406 116.382812 251.714844 118.855469 C 252.285156 120 252 120.855469 250.855469 121.429688 Z M 150.570312 243.429688 C 149.808594 243.238281 149.238281 243.523438 148.855469 244.285156 C 148.476562 245.046875 148.046875 246.238281 147.570312 247.855469 C 147.09375 249.476562 146.570312 250.761719 146 251.714844 C 145.429688 252.667969 144.476562 253.90625 143.144531 255.429688 C 141.808594 257.332031 141.714844 258.476562 142.855469 258.855469 C 143.617188 259.046875 144.808594 258.382812 146.429688 256.855469 C 148.046875 255.332031 149.238281 253.617188 150 251.714844 C 150.191406 251.144531 150.382812 250.476562 150.570312 249.714844 C 150.761719 248.953125 150.953125 248.382812 151.144531 248 C 151.332031 247.617188 151.476562 247.191406 151.570312 246.714844 C 151.667969 246.238281 152.144531 245.855469 153 245.570312 L 153 244.714844 L 152.714844 244 L 151.855469 243.429688 Z M 394.855469 346 C 394.855469 342.570312 389.617188 338.570312 379.144531 334 C 379.90625 331.144531 380.617188 328.523438 381.285156 326.144531 C 381.953125 323.761719 382.429688 321.285156 382.714844 318.714844 C 383 316.144531 383.285156 314.09375 383.570312 312.570312 C 383.855469 311.046875 384.332031 308.90625 385 306.144531 C 385.667969 303.382812 385.570312 301.523438 384.714844 300.570312 C 383.855469 299.617188 383.523438 297.523438 383.714844 294.285156 C 383.90625 291.046875 383.523438 289.09375 382.570312 288.429688 C 381.617188 287.761719 381.144531 285.382812 381.144531 281.285156 C 381.144531 277.191406 380.617188 274.667969 379.570312 273.714844 C 377.667969 264.570312 373.191406 254.761719 366.144531 244.285156 C 359.09375 233.808594 352.238281 226.667969 345.570312 222.855469 C 350.144531 226.667969 355.570312 234.570312 361.855469 246.570312 C 378.429688 277.429688 383.570312 303.90625 377.285156 326 C 375.191406 333.617188 370.429688 337.617188 363 338 C 357.09375 338.761719 353.429688 337 352 332.714844 C 350.570312 328.429688 349.808594 320.476562 349.714844 308.855469 C 349.617188 297.238281 348.523438 287.046875 346.429688 278.285156 C 344.714844 270.855469 342.855469 264.285156 340.855469 258.570312 C 338.855469 252.855469 337 248.523438 335.285156 245.570312 C 333.570312 242.617188 332.09375 240.285156 330.855469 238.570312 C 329.617188 236.855469 328.382812 235.429688 327.144531 234.285156 C 325.90625 233.144531 325.191406 232.476562 325 232.285156 C 322.332031 220.476562 319.382812 210.667969 316.144531 202.855469 C 312.90625 195.046875 310.09375 189.714844 307.714844 186.855469 C 305.332031 184 303.09375 180.855469 301 177.429688 C 298.90625 174 297.476562 170.191406 296.714844 166 C 295.953125 162 296.523438 156.90625 298.429688 150.714844 C 300.332031 144.523438 300.761719 139.808594 299.714844 136.570312 C 298.667969 133.332031 294.429688 130.953125 287 129.429688 C 284.144531 128.855469 279.90625 127.144531 274.285156 124.285156 C 268.667969 121.429688 265.285156 119.90625 264.144531 119.714844 C 262.617188 119.523438 261.570312 117.046875 261 112.285156 C 260.429688 107.523438 261.191406 102.667969 263.285156 97.714844 C 265.382812 92.761719 268.808594 90.191406 273.570312 90 C 280.617188 89.429688 285.476562 92.285156 288.144531 98.570312 C 290.808594 104.855469 291.191406 110.382812 289.285156 115.144531 C 287.191406 118.761719 287 121.285156 288.714844 122.714844 C 290.429688 124.144531 293.285156 124.191406 297.285156 122.855469 C 299.761719 122.09375 301 118.667969 301 112.570312 L 301 102 C 300.046875 96.285156 298.761719 91.523438 297.144531 87.714844 C 295.523438 83.90625 293.523438 81 291.144531 79 C 288.761719 77 286.523438 75.570312 284.429688 74.714844 C 282.332031 73.855469 279.761719 73.144531 276.714844 72.570312 C 256.332031 74.09375 247.855469 86.855469 251.285156 110.855469 C 251.285156 113.714844 251.191406 115.144531 251 115.144531 C 249.285156 113.429688 246.476562 112.429688 242.570312 112.144531 C 238.667969 111.855469 235.523438 111.808594 233.144531 112 C 230.761719 112.191406 229.285156 111.714844 228.714844 110.570312 C 228.90625 99.714844 227.382812 91.144531 224.144531 84.855469 C 220.90625 78.570312 216.617188 75.332031 211.285156 75.144531 C 206.144531 74.953125 202.191406 77.570312 199.429688 83 C 196.667969 88.429688 195.09375 94.09375 194.714844 100 C 194.523438 102.855469 194.855469 106.382812 195.714844 110.570312 C 196.570312 114.761719 197.808594 118.332031 199.429688 121.285156 C 201.046875 124.238281 202.523438 125.523438 203.855469 125.144531 C 205.761719 124.570312 207.285156 123.238281 208.429688 121.144531 C 209.191406 119.429688 208.523438 118.667969 206.429688 118.855469 C 205.09375 118.855469 203.617188 117.476562 202 114.714844 C 200.382812 111.953125 199.476562 108.761719 199.285156 105.144531 C 199.09375 100.953125 199.953125 97.429688 201.855469 94.570312 C 203.761719 91.714844 207 90.382812 211.570312 90.570312 C 214.808594 90.570312 217.382812 92.570312 219.285156 96.570312 C 221.191406 100.570312 222.09375 104.285156 222 107.714844 C 221.90625 111.144531 221.761719 113.238281 221.570312 114 C 217.382812 116.855469 214.429688 119.617188 212.714844 122.285156 C 211.191406 124.570312 208.570312 126.808594 204.855469 129 C 201.144531 131.191406 199.191406 132.382812 199 132.570312 C 196.523438 135.238281 195.046875 137.808594 194.570312 140.285156 C 194.09375 142.761719 194.808594 144.476562 196.714844 145.429688 C 199.382812 146.953125 201.761719 148.808594 203.855469 151 C 205.953125 153.191406 207.476562 155 208.429688 156.429688 C 209.382812 157.855469 211.144531 159.09375 213.714844 160.144531 C 216.285156 161.191406 219.667969 161.808594 223.855469 162 C 232.808594 162.382812 242.523438 160.953125 253 157.714844 C 253.382812 157.523438 255.570312 156.855469 259.570312 155.714844 C 263.570312 154.570312 266.855469 153.570312 269.429688 152.714844 C 272 151.855469 274.808594 150.617188 277.855469 149 C 280.90625 147.382812 282.90625 145.714844 283.855469 144 C 285.570312 141.332031 287.476562 140.570312 289.570312 141.714844 C 290.523438 142.285156 291.144531 143.09375 291.429688 144.144531 C 291.714844 145.191406 291.429688 146.332031 290.570312 147.570312 C 289.714844 148.808594 288.144531 149.714844 285.855469 150.285156 C 282.046875 151.429688 276.667969 153.476562 269.714844 156.429688 C 262.761719 159.382812 258.429688 161.238281 256.714844 162 C 248.332031 165.617188 241.667969 167.808594 236.714844 168.570312 C 231.953125 169.523438 224.429688 169.332031 214.144531 168 C 212.238281 167.617188 211.382812 167.808594 211.570312 168.570312 C 211.761719 169.332031 213.382812 171.144531 216.429688 174 C 221.191406 178.382812 227.570312 180.476562 235.570312 180.285156 C 238.808594 180.09375 242.238281 179.429688 245.855469 178.285156 C 249.476562 177.144531 252.90625 175.808594 256.144531 174.285156 C 259.382812 172.761719 262.570312 171.09375 265.714844 169.285156 C 268.855469 167.476562 271.714844 165.855469 274.285156 164.429688 C 276.855469 163 279.191406 161.855469 281.285156 161 C 283.382812 160.144531 285.046875 159.90625 286.285156 160.285156 C 287.523438 160.667969 288.332031 161.714844 288.714844 163.429688 C 288.714844 163.808594 288.617188 164.238281 288.429688 164.714844 C 288.238281 165.191406 287.855469 165.667969 287.285156 166.144531 C 286.714844 166.617188 286.144531 167.046875 285.570312 167.429688 C 285 167.808594 284.191406 168.285156 283.144531 168.855469 C 282.09375 169.429688 281.238281 169.855469 280.570312 170.144531 C 279.90625 170.429688 278.953125 170.90625 277.714844 171.570312 C 276.476562 172.238281 275.570312 172.667969 275 172.855469 C 269.667969 175.523438 263.238281 179.714844 255.714844 185.429688 C 248.191406 191.144531 241.855469 195.238281 236.714844 197.714844 C 231.570312 200.191406 226.90625 200.285156 222.714844 198 C 218.714844 195.90625 212.714844 188.953125 204.714844 177.144531 C 200.523438 171.238281 198.144531 169.144531 197.570312 170.855469 C 197.382812 171.429688 197.285156 172.382812 197.285156 173.714844 C 197.285156 178.476562 195.855469 183.855469 193 189.855469 C 190.144531 195.855469 187.332031 201.144531 184.570312 205.714844 C 181.808594 210.285156 179.808594 215.808594 178.570312 222.285156 C 177.332031 228.761719 178.429688 234.761719 181.855469 240.285156 C 177.476562 241.429688 171.523438 250 164 266 C 156.476562 282 151.953125 295.429688 150.429688 306.285156 C 150.046875 309.714844 149.90625 316.285156 150 326 C 150.09375 335.714844 149.570312 341.332031 148.429688 342.855469 C 146.90625 347.429688 144.144531 347.714844 140.144531 343.714844 C 134.046875 337.808594 130.617188 328.855469 129.855469 316.855469 C 129.476562 311.523438 129.855469 306.191406 131 300.855469 C 131.761719 297.238281 131.667969 295.523438 130.714844 295.714844 L 129.570312 297.144531 C 122.714844 309.523438 123.667969 325.332031 132.429688 344.570312 C 133.382812 346.855469 135.761719 349.523438 139.570312 352.570312 C 143.382812 355.617188 145.667969 357.523438 146.429688 358.285156 C 150.238281 362.667969 160.144531 371.285156 176.144531 384.144531 C 192.144531 397 201 404.285156 202.714844 406 C 205.761719 408.855469 207.429688 412.476562 207.714844 416.855469 C 208 421.238281 206.667969 425.332031 203.714844 429.144531 C 200.761719 432.953125 196.429688 435.144531 190.714844 435.714844 C 192.238281 438.570312 195 442.808594 199 448.429688 C 203 454.046875 205.667969 459.191406 207 463.855469 C 208.332031 468.523438 209 475.238281 209 484 C 217.761719 479.429688 218.429688 470.667969 211 457.714844 C 210.238281 456.191406 209.238281 454.667969 208 453.144531 C 206.761719 451.617188 205.855469 450.476562 205.285156 449.714844 C 204.714844 448.953125 204.523438 448.382812 204.714844 448 C 205.285156 447.046875 206.523438 446.144531 208.429688 445.285156 C 210.332031 444.429688 212.238281 444.667969 214.144531 446 C 222.90625 455.90625 238.714844 459.332031 261.570312 456.285156 C 286.90625 453.429688 303.761719 445.144531 312.144531 431.429688 C 316.523438 424.191406 319.761719 421.332031 321.855469 422.855469 C 324.144531 424 325.09375 428.953125 324.714844 437.714844 C 324.523438 442.476562 322.332031 451.238281 318.144531 464 C 316.429688 468.382812 315.855469 471.953125 316.429688 474.714844 C 317 477.476562 319.285156 478.953125 323.285156 479.144531 C 323.855469 475.523438 325.238281 468.191406 327.429688 457.144531 C 329.617188 446.09375 330.90625 437.523438 331.285156 431.429688 C 331.667969 427.429688 331.046875 420.429688 329.429688 410.429688 C 327.808594 400.429688 327.09375 391.191406 327.285156 382.714844 C 327.476562 374.238281 329.667969 367.523438 333.855469 362.570312 C 336.714844 359.144531 341.570312 357.429688 348.429688 357.429688 C 348.617188 350.382812 351.90625 345.332031 358.285156 342.285156 C 364.667969 339.238281 371.570312 338.238281 379 339.285156 C 386.429688 340.332031 392.144531 342.476562 396.144531 345.714844 Z M 215.429688 109.714844 C 216 106.476562 215.761719 103.617188 214.714844 101.144531 C 213.667969 98.667969 212.570312 97.238281 211.429688 96.855469 C 209.714844 96.476562 208.855469 97.144531 208.855469 98.855469 C 209.238281 99.808594 209.714844 100.382812 210.285156 100.570312 C 212.191406 100.570312 212.855469 102 212.285156 104.855469 C 211.714844 108.667969 212.476562 110.570312 214.570312 110.570312 C 215.144531 110.570312 215.429688 110.285156 215.429688 109.714844 Z M 335.144531 166 C 334.761719 164.476562 334.144531 163.382812 333.285156 162.714844 C 332.429688 162.046875 331.191406 161.570312 329.570312 161.285156 C 327.953125 161 326.570312 160.476562 325.429688 159.714844 C 324.476562 159.144531 323.570312 158.382812 322.714844 157.429688 C 321.855469 156.476562 321.191406 155.714844 320.714844 155.144531 C 320.238281 154.570312 319.714844 153.953125 319.144531 153.285156 C 318.570312 152.617188 318.191406 152.238281 318 152.144531 C 317.808594 152.046875 317.429688 152.191406 316.855469 152.570312 C 314.191406 155.617188 314.855469 159.761719 318.855469 165 C 322.855469 170.238281 326.570312 173.238281 330 174 C 331.714844 174.191406 333.09375 173.429688 334.144531 171.714844 C 335.191406 170 335.523438 168.09375 335.144531 166 Z M 284.285156 105.144531 C 284.285156 103.046875 283.808594 101.191406 282.855469 99.570312 C 281.90625 97.953125 280.855469 96.761719 279.714844 96 C 278.570312 95.238281 277.714844 94.953125 277.144531 95.144531 C 274.476562 95.332031 273.808594 96 275.144531 97.144531 L 276.285156 97.714844 C 278.953125 98.476562 280.667969 101.429688 281.429688 106.570312 C 281.429688 107.144531 282.191406 106.953125 283.714844 106 Z M 299.714844 38.570312 C 299.714844 38.191406 299.476562 37.714844 299 37.144531 C 298.523438 36.570312 297.667969 35.90625 296.429688 35.144531 C 295.191406 34.382812 294.285156 33.808594 293.714844 33.429688 C 290.855469 30.570312 288.570312 29.144531 286.855469 29.144531 C 285.144531 29.332031 284.046875 30.046875 283.570312 31.285156 C 283.09375 32.523438 283 33.761719 283.285156 35 C 283.570312 36.238281 283.523438 37.429688 283.144531 38.570312 C 282.953125 39.332031 282.382812 40.332031 281.429688 41.570312 C 280.476562 42.808594 279.90625 43.667969 279.714844 44.144531 C 279.523438 44.617188 279.808594 45.429688 280.570312 46.570312 C 281.332031 47.144531 282.09375 47.144531 282.855469 46.570312 C 283.617188 46 284.667969 45.144531 286 44 C 287.332031 42.855469 288.761719 42 290.285156 41.429688 C 290.476562 41.238281 291.332031 41.144531 292.855469 41.144531 C 294.382812 41.144531 295.808594 40.953125 297.144531 40.570312 C 298.476562 40.191406 299.332031 39.523438 299.714844 38.570312 Z M 461.144531 421.714844 C 464.953125 424 467.90625 426.332031 470 428.714844 C 472.09375 431.09375 473.238281 433.382812 473.429688 435.570312 C 473.617188 437.761719 473.382812 439.90625 472.714844 442 C 472.046875 444.09375 470.570312 446.191406 468.285156 448.285156 C 466 450.382812 463.761719 452.238281 461.570312 453.855469 C 459.382812 455.476562 456.523438 457.238281 453 459.144531 C 449.476562 461.046875 446.476562 462.617188 444 463.855469 C 441.523438 465.09375 438.476562 466.570312 434.855469 468.285156 C 431.238281 470 428.667969 471.238281 427.144531 472 C 419.90625 475.617188 411.761719 480.953125 402.714844 488 C 393.667969 495.046875 386.476562 501.144531 381.144531 506.285156 C 377.90625 509.332031 371.429688 511.191406 361.714844 511.855469 C 352 512.523438 343.523438 511.144531 336.285156 507.714844 C 332.855469 506 330.046875 503.761719 327.855469 501 C 325.667969 498.238281 324.09375 495.808594 323.144531 493.714844 C 322.191406 491.617188 320.09375 489.761719 316.855469 488.144531 C 313.617188 486.523438 309.144531 485.617188 303.429688 485.429688 C 295.046875 485.238281 282.667969 485.144531 266.285156 485.144531 C 262.667969 485.144531 257.238281 485.285156 250 485.570312 C 242.761719 485.855469 237.238281 486.09375 233.429688 486.285156 C 225.046875 486.476562 217.476562 487.90625 210.714844 490.570312 C 203.953125 493.238281 198.855469 496.09375 195.429688 499.144531 C 192 502.191406 187.855469 504.90625 183 507.285156 C 178.144531 509.667969 173.046875 510.761719 167.714844 510.570312 C 162.191406 510.382812 151.617188 507.429688 136 501.714844 C 120.382812 496 106.476562 491.90625 94.285156 489.429688 C 90.667969 488.667969 85.808594 487.761719 79.714844 486.714844 C 73.617188 485.667969 68.855469 484.808594 65.429688 484.144531 C 62 483.476562 58.238281 482.570312 54.144531 481.429688 C 50.046875 480.285156 46.855469 478.90625 44.570312 477.285156 C 42.285156 475.667969 40.667969 473.808594 39.714844 471.714844 C 37.808594 467.332031 38.476562 461 41.714844 452.714844 C 44.953125 444.429688 46.667969 439.238281 46.855469 437.144531 C 47.046875 434.09375 46.667969 430.285156 45.714844 425.714844 C 44.761719 421.144531 43.808594 417.09375 42.855469 413.570312 C 41.90625 410.046875 41.476562 406.570312 41.570312 403.144531 C 41.667969 399.714844 42.667969 397.144531 44.570312 395.429688 C 47.238281 393.144531 52.667969 391.808594 60.855469 391.429688 C 69.046875 391.046875 74.761719 389.90625 78 388 C 83.714844 384.570312 87.714844 381.238281 90 378 C 92.285156 374.761719 93.429688 369.90625 93.429688 363.429688 C 97.429688 377.332031 94.382812 387.429688 84.285156 393.714844 C 78.191406 397.523438 70.285156 398.953125 60.570312 398 C 54.09375 397.429688 50 398.382812 48.285156 400.855469 C 45.808594 403.714844 46.285156 409.144531 49.714844 417.144531 C 50.09375 418.285156 50.855469 420 52 422.285156 C 53.144531 424.570312 53.953125 426.285156 54.429688 427.429688 C 54.90625 428.570312 55.332031 430.191406 55.714844 432.285156 C 56.09375 434.382812 56.191406 436.476562 56 438.570312 C 56 441.429688 54.382812 446.09375 51.144531 452.570312 C 47.90625 459.046875 46.570312 463.617188 47.144531 466.285156 C 47.714844 469.523438 51.238281 472 57.714844 473.714844 C 61.523438 474.855469 69.570312 476.617188 81.855469 479 C 94.144531 481.382812 103.617188 483.332031 110.285156 484.855469 C 114.855469 486 121.90625 488.09375 131.429688 491.144531 C 140.953125 494.191406 148.808594 496.382812 155 497.714844 C 161.191406 499.046875 166.476562 499.429688 170.855469 498.855469 C 179.046875 497.714844 185.191406 495.046875 189.285156 490.855469 C 193.382812 486.667969 195.570312 482.09375 195.855469 477.144531 C 196.144531 472.191406 195.429688 466.617188 193.714844 460.429688 C 192 454.238281 190.191406 449.285156 188.285156 445.570312 C 186.382812 441.855469 184.476562 438.382812 182.570312 435.144531 C 159.523438 398.953125 143.429688 375.90625 134.285156 366 C 121.332031 351.90625 110.570312 348.09375 102 354.570312 C 99.90625 356.285156 98.476562 354.855469 97.714844 350.285156 C 97.144531 347.238281 96.953125 343.617188 97.144531 339.429688 C 97.332031 333.90625 98.285156 328.953125 100 324.570312 C 101.714844 320.191406 104 315.714844 106.855469 311.144531 C 109.714844 306.570312 111.808594 302.570312 113.144531 299.144531 C 114.667969 295.144531 117.191406 288.285156 120.714844 278.570312 C 124.238281 268.855469 127.046875 261.429688 129.144531 256.285156 C 131.238281 251.144531 134.09375 245.332031 137.714844 238.855469 C 141.332031 232.382812 145.046875 227.238281 148.855469 223.429688 C 169.808594 196.191406 181.617188 177.617188 184.285156 167.714844 C 182 146.382812 180.476562 116.855469 179.714844 79.144531 C 179.332031 62 181.617188 47.570312 186.570312 35.855469 C 191.523438 24.144531 201.617188 14.191406 216.855469 6 C 224.285156 2 234.191406 0 246.570312 0 C 256.667969 -0.191406 266.761719 1.09375 276.855469 3.855469 C 286.953125 6.617188 295.429688 10.570312 302.285156 15.714844 C 313.144531 23.714844 321.855469 35.285156 328.429688 50.429688 C 335 65.570312 337.808594 79.617188 336.855469 92.570312 C 335.90625 110.667969 338.761719 131.046875 345.429688 153.714844 C 351.90625 175.238281 364.570312 196 383.429688 216 C 393.90625 227.238281 403.382812 242.761719 411.855469 262.570312 C 420.332031 282.382812 426 300.570312 428.855469 317.144531 C 430.382812 326.476562 430.855469 334.523438 430.285156 341.285156 C 429.714844 348.046875 428.570312 353.332031 426.855469 357.144531 C 425.144531 360.953125 423.238281 363.046875 421.144531 363.429688 C 419.238281 363.808594 417 365.617188 414.429688 368.855469 C 411.855469 372.09375 409.285156 375.476562 406.714844 379 C 404.144531 382.523438 400.285156 385.714844 395.144531 388.570312 C 390 391.429688 384.191406 392.761719 377.714844 392.570312 C 374.285156 392.382812 371.285156 391.90625 368.714844 391.144531 C 366.144531 390.382812 364 389.09375 362.285156 387.285156 C 360.570312 385.476562 359.285156 384 358.429688 382.855469 C 357.570312 381.714844 356.476562 379.761719 355.144531 377 C 353.808594 374.238281 352.953125 372.382812 352.570312 371.429688 C 348.382812 364.382812 344.476562 361.523438 340.855469 362.855469 C 337.238281 364.191406 334.570312 368.855469 332.855469 376.855469 C 331.144531 384.855469 331.808594 394.09375 334.855469 404.570312 C 338.667969 417.90625 338.761719 436.476562 335.144531 460.285156 C 333.238281 472.667969 334.953125 482.238281 340.285156 489 C 345.617188 495.761719 352.570312 498.90625 361.144531 498.429688 C 369.714844 497.953125 377.808594 494.570312 385.429688 488.285156 C 396.667969 478.953125 405.191406 472.617188 411 469.285156 C 416.808594 465.953125 426.667969 461.90625 440.570312 457.144531 C 450.667969 453.714844 458 450.238281 462.570312 446.714844 C 467.144531 443.191406 468.90625 439.90625 467.855469 436.855469 C 466.808594 433.808594 464.429688 431.09375 460.714844 428.714844 C 457 426.332031 452.09375 424.09375 446 422 C 439.714844 419.90625 435 415.332031 431.855469 408.285156 C 428.714844 401.238281 427.285156 394.332031 427.570312 387.570312 C 427.855469 380.808594 429.332031 376.285156 432 374 C 432.191406 379.90625 432.953125 385.285156 434.285156 390.144531 C 435.617188 395 437 398.855469 438.429688 401.714844 C 439.855469 404.570312 441.808594 407.285156 444.285156 409.855469 C 446.761719 412.429688 448.761719 414.238281 450.285156 415.285156 C 451.808594 416.332031 453.855469 417.570312 456.429688 419 C 459 420.429688 460.570312 421.332031 461.144531 421.714844 Z M 461.144531 421.714844 "/>
  </g>
</svg>