<?xml version="1.0" encoding="UTF-8" standalone="yes"?>
<svg version="1.1" xmlns="http://www.w3.org/2000/svg" xmlns:xlink="http://www.w3.org/1999/xlink" x="0px" y="0px" viewBox="0 0 512 512" enable-background="new 0 0 512 512" xml:space="preserve">
  <g id="bounds" display="none"><rect display="inline" fill="none" width="512" height="512"/></g><g id="Layer_2">
    <path style=" stroke:none;fill-rule:nonzero;fill:rgb(0%,0%,0%);fill-opacity:1;" d="M 498.570312 220.855469 L 451.714844 438.855469 L 356.285156 438.855469 L 407.144531 201.144531 C 409.617188 190.476562 408.191406 182.09375 402.855469 176 C 397.714844 169.714844 389.808594 166.570312 379.144531 166.570312 L 330.855469 166.570312 L 272.570312 438.855469 L 177.144531 438.855469 L 235.429688 166.570312 L 153.714844 166.570312 L 95.429688 438.855469 L 0 438.855469 L 58.285156 166.570312 L 14.570312 73.144531 L 379.144531 73.144531 C 398.382812 73.144531 416.429688 77 433.285156 84.714844 C 450.144531 92.429688 464.191406 103.238281 475.429688 117.144531 C 486.855469 131.046875 494.570312 147.09375 498.570312 165.285156 C 502.570312 183.476562 502.570312 202 498.570312 220.855469 Z M 498.570312 220.855469 "/>
  </g>
</svg>