<?xml version="1.0" encoding="UTF-8" standalone="yes"?>
<svg version="1.1" xmlns="http://www.w3.org/2000/svg" xmlns:xlink="http://www.w3.org/1999/xlink" x="0px" y="0px" viewBox="0 0 512 512" enable-background="new 0 0 512 512" xml:space="preserve">
  <g id="bounds" display="none"><rect display="inline" fill="none" width="512" height="512"/></g><g id="Layer_2">
    <path style=" stroke:none;fill-rule:nonzero;fill:rgb(0%,0%,0%);fill-opacity:1;" d="M 310.285156 0 L 310.285156 438.855469 L 232.570312 475.429688 C 189.144531 471.617188 149.714844 461.90625 114.285156 446.285156 C 78.855469 430.667969 50.953125 410.808594 30.570312 386.714844 C 10.191406 362.617188 0 336.667969 0 308.855469 C 0 282.191406 9.570312 257.09375 28.714844 233.570312 C 47.855469 210.046875 74.046875 190.476562 107.285156 174.855469 C 140.523438 159.238281 177.808594 148.953125 219.144531 144 L 219.144531 193.144531 C 177.808594 200.382812 143.855469 214.667969 117.285156 236 C 90.714844 257.332031 77.429688 281.617188 77.429688 308.855469 C 77.429688 337.808594 92.144531 363.238281 121.570312 385.144531 C 151 407.046875 188 420.855469 232.570312 426.570312 L 232.570312 38 Z M 501.429688 166.285156 L 512 277.714844 L 362 245.144531 L 404 221.429688 C 381.332031 208.09375 354.667969 198.667969 324 193.144531 L 324 144 C 376.761719 150.285156 422.570312 165.238281 461.429688 188.855469 Z M 501.429688 166.285156 "/>
  </g>
</svg>