<?xml version="1.0" encoding="UTF-8" standalone="yes"?>
<svg version="1.1" xmlns="http://www.w3.org/2000/svg" xmlns:xlink="http://www.w3.org/1999/xlink" x="0px" y="0px" viewBox="0 0 512 512" enable-background="new 0 0 512 512" xml:space="preserve">
  <g id="bounds" display="none"><rect display="inline" fill="none" width="512" height="512"/></g><g id="Layer_2">
    <path style=" stroke:none;fill-rule:nonzero;fill:rgb(0%,0%,0%);fill-opacity:1;" d="M 150.855469 392 L 155.429688 323.144531 L 150.855469 173.714844 C 150.667969 171.808594 149.953125 170.191406 148.714844 168.855469 C 147.476562 167.523438 145.90625 166.855469 144 166.855469 C 142.285156 166.855469 140.761719 167.523438 139.429688 168.855469 C 138.09375 170.191406 137.429688 171.808594 137.429688 173.714844 L 133.429688 323.144531 L 137.429688 392 C 137.617188 393.90625 138.332031 395.476562 139.570312 396.714844 C 140.808594 397.953125 142.285156 398.570312 144 398.570312 C 148.191406 398.570312 150.476562 396.382812 150.855469 392 Z M 235.429688 383.714844 L 238.570312 323.429688 L 235.144531 156 C 235.144531 152.953125 233.90625 150.667969 231.429688 149.144531 C 229.90625 148.191406 228.382812 147.714844 226.855469 147.714844 C 225.332031 147.714844 223.808594 148.191406 222.285156 149.144531 C 219.808594 150.667969 218.570312 152.953125 218.570312 156 L 218.285156 157.714844 L 215.429688 323.144531 C 215.429688 323.332031 216.476562 345.808594 218.570312 390.570312 L 218.570312 390.855469 C 218.570312 392.761719 219.144531 394.382812 220.285156 395.714844 C 222 397.808594 224.191406 398.855469 226.855469 398.855469 C 228.953125 398.855469 230.855469 398 232.570312 396.285156 C 234.285156 394.953125 235.144531 393.046875 235.144531 390.570312 Z M -63.144531 286.570312 L -57.429688 323.144531 L -63.144531 359.144531 C -63.523438 360.855469 -64.382812 361.714844 -65.714844 361.714844 C -67.046875 361.714844 -67.90625 360.855469 -68.285156 359.144531 L -73.144531 323.144531 L -68.285156 286.570312 C -67.90625 284.855469 -67.046875 284 -65.714844 284 C -64.382812 284 -63.523438 284.855469 -63.144531 286.570312 Z M -38.570312 264 L -31.144531 323.144531 L -38.570312 381.144531 C -38.953125 382.855469 -39.90625 383.714844 -41.429688 383.714844 C -43.144531 383.714844 -44 382.761719 -44 380.855469 L -50.570312 323.144531 L -44 264 C -44 262.285156 -43.144531 261.429688 -41.429688 261.429688 C -39.90625 261.429688 -38.953125 262.285156 -38.570312 264 Z M 41.429688 393.429688 Z M -12.285156 253.144531 L -5.144531 323.144531 L -12.285156 390.855469 C -12.285156 392.953125 -13.332031 394 -15.429688 394 C -17.332031 394 -18.476562 392.953125 -18.855469 390.855469 L -24.855469 323.144531 L -18.855469 253.144531 C -18.476562 250.855469 -17.332031 249.714844 -15.429688 249.714844 C -13.332031 249.714844 -12.285156 250.855469 -12.285156 253.144531 Z M 14.570312 251.144531 L 21.144531 323.144531 L 14.570312 392.855469 C 14.191406 395.332031 12.855469 396.570312 10.570312 396.570312 C 8.09375 396.570312 6.855469 395.332031 6.855469 392.855469 L 0.855469 323.144531 L 6.855469 251.144531 C 6.855469 248.667969 8.09375 247.429688 10.570312 247.429688 C 12.855469 247.429688 14.191406 248.667969 14.570312 251.144531 Z M 41.429688 256.285156 L 47.429688 323.144531 L 41.429688 393.429688 C 41.046875 396.476562 39.523438 398 36.855469 398 C 35.714844 398 34.714844 397.570312 33.855469 396.714844 C 33 395.855469 32.570312 394.761719 32.570312 393.429688 L 26.855469 323.144531 L 32.570312 256.285156 C 32.570312 255.144531 33 254.144531 33.855469 253.285156 C 34.714844 252.429688 35.714844 252 36.855469 252 C 39.523438 252 41.046875 253.429688 41.429688 256.285156 Z M 150.855469 392 Z M 68.285156 214.570312 L 74.285156 323.144531 L 68.285156 393.429688 C 68.285156 394.761719 67.808594 395.953125 66.855469 397 C 65.90625 398.046875 64.761719 398.570312 63.429688 398.570312 C 60.382812 398.570312 58.667969 396.855469 58.285156 393.429688 L 53.144531 323.144531 L 58.285156 214.570312 C 58.667969 211.144531 60.382812 209.429688 63.429688 209.429688 C 64.761719 209.429688 65.90625 209.953125 66.855469 211 C 67.808594 212.046875 68.285156 213.238281 68.285156 214.570312 Z M 95.144531 190 L 100.570312 323.714844 L 95.144531 393.429688 C 95.144531 394.953125 94.617188 396.238281 93.570312 397.285156 C 92.523438 398.332031 91.238281 398.855469 89.714844 398.855469 C 86.285156 398.855469 84.382812 397.046875 84 393.429688 L 79.429688 323.714844 L 84 190 C 84.382812 186.382812 86.285156 184.570312 89.714844 184.570312 C 91.238281 184.570312 92.523438 185.09375 93.570312 186.144531 C 94.617188 187.191406 95.144531 188.476562 95.144531 190 Z M 123.144531 178.570312 L 128.285156 323.144531 L 123.144531 392.285156 C 122.761719 396.285156 120.667969 398.285156 116.855469 398.285156 C 113.238281 398.285156 111.238281 396.285156 110.855469 392.285156 L 106.285156 323.144531 L 110.855469 178.570312 C 110.855469 176.855469 111.476562 175.382812 112.714844 174.144531 C 113.953125 172.90625 115.332031 172.285156 116.855469 172.285156 C 118.570312 172.285156 120 172.90625 121.144531 174.144531 C 122.285156 175.382812 122.953125 176.855469 123.144531 178.570312 Z M 235.144531 390.570312 Z M 178.570312 177.429688 L 182.855469 323.144531 L 178.570312 391.429688 C 178.570312 393.332031 177.855469 395 176.429688 396.429688 C 175 397.855469 173.332031 398.570312 171.429688 398.570312 C 169.523438 398.570312 167.90625 397.90625 166.570312 396.570312 C 165.238281 395.238281 164.476562 393.523438 164.285156 391.429688 L 160.285156 323.144531 L 164.285156 177.429688 C 164.285156 175.332031 165 173.617188 166.429688 172.285156 C 167.855469 170.953125 169.523438 170.285156 171.429688 170.285156 C 173.332031 170.285156 175 170.953125 176.429688 172.285156 C 177.855469 173.617188 178.570312 175.332031 178.570312 177.429688 Z M 206.855469 182.855469 L 210.855469 323.429688 L 206.855469 390.855469 C 206.855469 392.953125 206.09375 394.761719 204.570312 396.285156 C 203.046875 397.808594 201.238281 398.570312 199.144531 398.570312 C 197.046875 398.570312 195.238281 397.808594 193.714844 396.285156 C 192.191406 394.761719 191.332031 392.953125 191.144531 390.855469 L 187.714844 323.429688 L 191.144531 182.855469 C 191.332031 180.570312 192.191406 178.667969 193.714844 177.144531 C 195.238281 175.617188 197.046875 174.855469 199.144531 174.855469 C 201.238281 174.855469 203 175.617188 204.429688 177.144531 C 205.855469 178.667969 206.667969 180.570312 206.855469 182.855469 Z M 267.429688 323.429688 L 263.429688 389.429688 C 263.429688 391.90625 262.570312 394 260.855469 395.714844 C 259.144531 397.429688 257.046875 398.285156 254.570312 398.285156 C 252.09375 398.285156 250 397.429688 248.285156 395.714844 C 246.570312 394 245.617188 391.90625 245.429688 389.429688 L 243.714844 356.855469 L 242 323.429688 L 245.429688 141.714844 L 245.429688 140.855469 C 245.808594 138 246.953125 135.714844 248.855469 134 C 250.570312 132.667969 252.476562 132 254.570312 132 C 256.09375 132 257.523438 132.476562 258.855469 133.429688 C 261.523438 134.953125 263.046875 137.429688 263.429688 140.855469 Z M 585.144531 318 C 585.144531 340.285156 577.238281 359.285156 561.429688 375 C 545.617188 390.714844 526.570312 398.570312 504.285156 398.570312 L 279.714844 398.570312 C 277.238281 398.191406 275.144531 397.144531 273.429688 395.429688 C 271.714844 393.714844 270.855469 391.617188 270.855469 389.144531 L 270.855469 132.285156 C 270.855469 127.90625 273.523438 124.761719 278.855469 122.855469 C 295.046875 116.382812 312.285156 113.144531 330.570312 113.144531 C 367.714844 113.144531 399.90625 125.667969 427.144531 150.714844 C 454.382812 175.761719 469.617188 206.570312 472.855469 243.144531 C 482.953125 238.953125 493.429688 236.855469 504.285156 236.855469 C 526.570312 236.855469 545.617188 244.761719 561.429688 260.570312 C 577.238281 276.382812 585.144531 295.523438 585.144531 318 Z M 585.144531 318 "/>
  </g>
</svg>