<?xml version="1.0" encoding="UTF-8" standalone="yes"?>
<svg version="1.1" xmlns="http://www.w3.org/2000/svg" xmlns:xlink="http://www.w3.org/1999/xlink" x="0px" y="0px" viewBox="0 0 512 512" enable-background="new 0 0 512 512" xml:space="preserve">
  <g id="bounds" display="none"><rect display="inline" fill="none" width="512" height="512"/></g><g id="Layer_2">
    <path style=" stroke:none;fill-rule:nonzero;fill:rgb(0%,0%,0%);fill-opacity:1;" d="M 358.570312 345.714844 C 358.570312 339.617188 355.714844 334.761719 350 331.144531 C 313.238281 309.238281 270.667969 298.285156 222.285156 298.285156 C 196.953125 298.285156 169.617188 301.523438 140.285156 308 C 132.285156 309.714844 128.285156 314.667969 128.285156 322.855469 C 128.285156 326.667969 129.570312 329.953125 132.144531 332.714844 C 134.714844 335.476562 138.09375 336.855469 142.285156 336.855469 C 143.238281 336.855469 146.761719 336.09375 152.855469 334.570312 C 178 329.429688 201.144531 326.855469 222.285156 326.855469 C 265.332031 326.855469 303.144531 336.667969 335.714844 356.285156 C 339.332031 358.382812 342.476562 359.429688 345.144531 359.429688 C 348.761719 359.429688 351.90625 358.144531 354.570312 355.570312 C 357.238281 353 358.570312 349.714844 358.570312 345.714844 Z M 386 284.285156 C 386 276.667969 382.667969 270.855469 376 266.855469 C 330.855469 240 278.667969 226.570312 219.429688 226.570312 C 190.285156 226.570312 161.429688 230.570312 132.855469 238.570312 C 123.714844 241.046875 119.144531 247.144531 119.144531 256.855469 C 119.144531 261.617188 120.808594 265.667969 124.144531 269 C 127.476562 272.332031 131.523438 274 136.285156 274 C 137.617188 274 141.144531 273.238281 146.855469 271.714844 C 170.09375 265.429688 194 262.285156 218.570312 262.285156 C 271.714844 262.285156 318.191406 274.09375 358 297.714844 C 362.570312 300.191406 366.191406 301.429688 368.855469 301.429688 C 373.617188 301.429688 377.667969 299.761719 381 296.429688 C 384.332031 293.09375 386 289.046875 386 284.285156 Z M 416.855469 213.429688 C 416.855469 204.476562 413.046875 197.808594 405.429688 193.429688 C 381.429688 179.523438 353.523438 169 321.714844 161.855469 C 289.90625 154.714844 257.238281 151.144531 223.714844 151.144531 C 184.855469 151.144531 150.191406 155.617188 119.714844 164.570312 C 115.332031 165.90625 111.667969 168.332031 108.714844 171.855469 C 105.761719 175.382812 104.285156 180 104.285156 185.714844 C 104.285156 191.617188 106.238281 196.570312 110.144531 200.570312 C 114.046875 204.570312 118.953125 206.570312 124.855469 206.570312 C 126.953125 206.570312 130.761719 205.808594 136.285156 204.285156 C 161.617188 197.238281 190.855469 193.714844 224 193.714844 C 254.285156 193.714844 283.761719 196.953125 312.429688 203.429688 C 341.09375 209.90625 365.238281 218.953125 384.855469 230.570312 C 388.855469 232.855469 392.667969 234 396.285156 234 C 401.808594 234 406.617188 232.046875 410.714844 228.144531 C 414.808594 224.238281 416.855469 219.332031 416.855469 213.429688 Z M 475.429688 256 C 475.429688 295.808594 465.617188 332.523438 446 366.144531 C 426.382812 399.761719 399.761719 426.382812 366.144531 446 C 332.523438 465.617188 295.808594 475.429688 256 475.429688 C 216.191406 475.429688 179.476562 465.617188 145.855469 446 C 112.238281 426.382812 85.617188 399.761719 66 366.144531 C 46.382812 332.523438 36.570312 295.808594 36.570312 256 C 36.570312 216.191406 46.382812 179.476562 66 145.855469 C 85.617188 112.238281 112.238281 85.617188 145.855469 66 C 179.476562 46.382812 216.191406 36.570312 256 36.570312 C 295.808594 36.570312 332.523438 46.382812 366.144531 66 C 399.761719 85.617188 426.382812 112.238281 446 145.855469 C 465.617188 179.476562 475.429688 216.191406 475.429688 256 Z M 475.429688 256 "/>
  </g>
</svg>