<?xml version="1.0" encoding="UTF-8" standalone="yes"?>
<svg version="1.1" xmlns="http://www.w3.org/2000/svg" xmlns:xlink="http://www.w3.org/1999/xlink" x="0px" y="0px" viewBox="0 0 512 512" enable-background="new 0 0 512 512" xml:space="preserve">
  <g id="bounds" display="none"><rect display="inline" fill="none" width="512" height="512"/></g><g id="Layer_2">
    <path style=" stroke:none;fill-rule:nonzero;fill:rgb(0%,0%,0%);fill-opacity:1;" d="M 452 166.285156 C 452 185.523438 445.191406 201.953125 431.570312 215.570312 C 417.953125 229.191406 401.523438 236 382.285156 236 C 363.046875 236 346.617188 229.191406 333 215.570312 C 319.382812 201.953125 312.570312 185.523438 312.570312 166.285156 C 312.570312 147.046875 319.382812 130.617188 333 117 C 346.617188 103.382812 363.046875 96.570312 382.285156 96.570312 C 401.523438 96.570312 417.953125 103.382812 431.570312 117 C 445.191406 130.617188 452 147.046875 452 166.285156 Z M 232 378.285156 C 232 358.476562 225.046875 341.617188 211.144531 327.714844 C 197.238281 313.808594 180.382812 306.855469 160.570312 306.855469 C 155.429688 306.855469 150.285156 307.429688 145.144531 308.570312 L 174.855469 320.570312 C 189.523438 326.476562 199.953125 336.617188 206.144531 351 C 212.332031 365.382812 212.476562 379.808594 206.570312 394.285156 C 200.667969 408.953125 190.476562 419.332031 176 425.429688 C 161.523438 431.523438 147.046875 431.617188 132.570312 425.714844 C 128.570312 424.191406 122.667969 421.855469 114.855469 418.714844 C 107.046875 415.570312 101.238281 413.238281 97.429688 411.714844 C 103.523438 423.144531 112.191406 432.332031 123.429688 439.285156 C 134.667969 446.238281 147.046875 449.714844 160.570312 449.714844 C 180.382812 449.714844 197.238281 442.761719 211.144531 428.855469 C 225.046875 414.953125 232 398.09375 232 378.285156 Z M 469.144531 166.570312 C 469.144531 142.570312 460.617188 122.046875 443.570312 105 C 426.523438 87.953125 406 79.429688 382 79.429688 C 357.808594 79.429688 337.191406 87.953125 320.144531 105 C 303.09375 122.046875 294.570312 142.570312 294.570312 166.570312 C 294.570312 190.761719 303.09375 211.332031 320.144531 228.285156 C 337.191406 245.238281 357.808594 253.714844 382 253.714844 C 406 253.714844 426.523438 245.238281 443.570312 228.285156 C 460.617188 211.332031 469.144531 190.761719 469.144531 166.570312 Z M 512 166.570312 C 512 202.570312 499.285156 233.238281 473.855469 258.570312 C 448.429688 283.90625 417.808594 296.570312 382 296.570312 L 257.144531 387.714844 C 254.855469 412.285156 244.476562 433.046875 226 450 C 207.523438 466.953125 185.714844 475.429688 160.570312 475.429688 C 137.523438 475.429688 117.144531 468.191406 99.429688 453.714844 C 81.714844 439.238281 70.476562 420.953125 65.714844 398.855469 L 0 372.570312 L 0 250 L 111.144531 294.855469 C 126.191406 285.714844 142.667969 281.144531 160.570312 281.144531 C 163.046875 281.144531 166.382812 281.332031 170.570312 281.714844 L 251.714844 165.429688 C 252.09375 129.808594 265 99.429688 290.429688 74.285156 C 315.855469 49.144531 346.382812 36.570312 382 36.570312 C 417.808594 36.570312 448.429688 49.285156 473.855469 74.714844 C 499.285156 100.144531 512 130.761719 512 166.570312 Z M 512 166.570312 "/>
  </g>
</svg>