<?xml version="1.0" encoding="UTF-8" standalone="yes"?>
<svg version="1.1" xmlns="http://www.w3.org/2000/svg" xmlns:xlink="http://www.w3.org/1999/xlink" x="0px" y="0px" viewBox="0 0 512 512" enable-background="new 0 0 512 512" xml:space="preserve">
  <g id="bounds" display="none"><rect display="inline" fill="none" width="512" height="512"/></g><g id="Layer_2">
    <path style=" stroke:none;fill-rule:nonzero;fill:rgb(0%,0%,0%);fill-opacity:1;" d="M 237.714844 384 L 237.714844 91.429688 C 237.714844 88.761719 236.855469 86.570312 235.144531 84.855469 C 233.429688 83.144531 231.238281 82.285156 228.570312 82.285156 L 91.429688 82.285156 C 88.761719 82.285156 86.570312 83.144531 84.855469 84.855469 C 83.144531 86.570312 82.285156 88.761719 82.285156 91.429688 L 82.285156 384 C 82.285156 386.667969 83.144531 388.855469 84.855469 390.570312 C 86.570312 392.285156 88.761719 393.144531 91.429688 393.144531 L 228.570312 393.144531 C 231.238281 393.144531 233.429688 392.285156 235.144531 390.570312 C 236.855469 388.855469 237.714844 386.667969 237.714844 384 Z M 429.714844 274.285156 L 429.714844 91.429688 C 429.714844 88.761719 428.855469 86.570312 427.144531 84.855469 C 425.429688 83.144531 423.238281 82.285156 420.570312 82.285156 L 283.429688 82.285156 C 280.761719 82.285156 278.570312 83.144531 276.855469 84.855469 C 275.144531 86.570312 274.285156 88.761719 274.285156 91.429688 L 274.285156 274.285156 C 274.285156 276.953125 275.144531 279.144531 276.855469 280.855469 C 278.570312 282.570312 280.761719 283.429688 283.429688 283.429688 L 420.570312 283.429688 C 423.238281 283.429688 425.429688 282.570312 427.144531 280.855469 C 428.855469 279.144531 429.714844 276.953125 429.714844 274.285156 Z M 475.429688 54.855469 L 475.429688 457.144531 C 475.429688 462.09375 473.617188 466.382812 470 470 C 466.382812 473.617188 462.09375 475.429688 457.144531 475.429688 L 54.855469 475.429688 C 49.90625 475.429688 45.617188 473.617188 42 470 C 38.382812 466.382812 36.570312 462.09375 36.570312 457.144531 L 36.570312 54.855469 C 36.570312 49.90625 38.382812 45.617188 42 42 C 45.617188 38.382812 49.90625 36.570312 54.855469 36.570312 L 457.144531 36.570312 C 462.09375 36.570312 466.382812 38.382812 470 42 C 473.617188 45.617188 475.429688 49.90625 475.429688 54.855469 Z M 475.429688 54.855469 "/>
  </g>
</svg>