<?xml version="1.0" encoding="UTF-8" standalone="yes"?>
<svg version="1.1" xmlns="http://www.w3.org/2000/svg" xmlns:xlink="http://www.w3.org/1999/xlink" x="0px" y="0px" viewBox="0 0 512 512" enable-background="new 0 0 512 512" xml:space="preserve">
  <g id="bounds" display="none"><rect display="inline" fill="none" width="512" height="512"/></g><g id="Layer_2">
    <path style=" stroke:none;fill-rule:nonzero;fill:rgb(0%,0%,0%);fill-opacity:1;" d="M 282 273.429688 L 285.714844 475.429688 C 273.90625 473.332031 263.90625 472.285156 255.714844 472.285156 C 247.90625 472.285156 237.90625 473.332031 225.714844 475.429688 L 229.429688 273.429688 C 221.808594 260.285156 205.761719 232.144531 181.285156 189 C 156.808594 145.855469 136.191406 110.191406 119.429688 82 C 102.667969 53.808594 85.429688 26.476562 67.714844 0 C 78.761719 2.855469 89.046875 4.285156 98.570312 4.285156 C 106.761719 4.285156 117.332031 2.855469 130.285156 0 C 142.285156 21.144531 155 43 168.429688 65.570312 C 181.855469 88.144531 197.761719 114.476562 216.144531 144.570312 C 234.523438 174.667969 247.714844 196.285156 255.714844 209.429688 C 262.761719 197.808594 273.191406 180.90625 287 158.714844 C 300.808594 136.523438 312 118.429688 320.570312 104.429688 C 329.144531 90.429688 339.144531 73.667969 350.570312 54.144531 C 362 34.617188 372.191406 16.570312 381.144531 0 C 391.429688 2.667969 401.617188 4 411.714844 4 C 422.382812 4 433.238281 2.667969 444.285156 0 C 438.953125 7.429688 433.238281 15.855469 427.144531 25.285156 C 421.046875 34.714844 416.332031 42.191406 413 47.714844 C 409.667969 53.238281 404.285156 62.382812 396.855469 75.144531 C 389.429688 87.90625 384.761719 95.90625 382.855469 99.144531 C 355.046875 146.382812 321.429688 204.476562 282 273.429688 Z M 282 273.429688 "/>
  </g>
</svg>