<?xml version="1.0" encoding="UTF-8" standalone="yes"?>
<svg version="1.1" xmlns="http://www.w3.org/2000/svg" xmlns:xlink="http://www.w3.org/1999/xlink" x="0px" y="0px" viewBox="0 0 512 512" enable-background="new 0 0 512 512" xml:space="preserve">
  <g id="bounds" display="none"><rect display="inline" fill="none" width="512" height="512"/></g><g id="Layer_2">
    <path style=" stroke:none;fill-rule:nonzero;fill:rgb(0%,0%,0%);fill-opacity:1;" d="M 128 469.332031 L 384 469.332031 L 256 298.667969 Z M 213.332031 426.667969 L 256 369.777344 L 298.667969 426.667969 Z M 426.667969 42.667969 L 85.332031 42.667969 C 49.972656 42.667969 21.332031 71.308594 21.332031 106.667969 L 21.332031 320 C 21.332031 355.359375 49.972656 384 85.332031 384 L 138.667969 384 L 170.667969 341.332031 L 85.332031 341.332031 C 73.546875 341.332031 64 331.785156 64 320 L 64 106.667969 C 64 94.878906 73.546875 85.332031 85.332031 85.332031 L 426.667969 85.332031 C 438.453125 85.332031 448 94.878906 448 106.667969 L 448 320 C 448 331.785156 438.453125 341.332031 426.667969 341.332031 L 341.332031 341.332031 L 373.332031 384 L 426.667969 384 C 462.027344 384 490.667969 355.359375 490.667969 320 L 490.667969 106.667969 C 490.667969 71.308594 462.027344 42.667969 426.667969 42.667969 Z M 426.667969 42.667969 "/>
  </g>
</svg>
