<?xml version="1.0" encoding="UTF-8" standalone="yes"?>
<svg version="1.1" xmlns="http://www.w3.org/2000/svg" xmlns:xlink="http://www.w3.org/1999/xlink" x="0px" y="0px" viewBox="0 0 512 512" enable-background="new 0 0 512 512" xml:space="preserve">
  <g id="bounds" display="none"><rect display="inline" fill="none" width="512" height="512"/></g><g id="Layer_2">
    <path style=" stroke:none;fill-rule:nonzero;fill:rgb(0%,0%,0%);fill-opacity:1;" d="M 469.332031 128 C 469.332031 116.21875 459.78125 106.667969 448 106.667969 L 64 106.667969 C 52.21875 106.667969 42.667969 116.21875 42.667969 128 C 42.667969 139.78125 52.21875 149.332031 64 149.332031 L 448 149.332031 C 459.78125 149.332031 469.332031 139.78125 469.332031 128 Z M 469.332031 213.332031 C 469.332031 201.550781 459.78125 192 448 192 L 149.332031 192 C 137.550781 192 128 201.550781 128 213.332031 C 128 225.113281 137.550781 234.667969 149.332031 234.667969 L 448 234.667969 C 459.78125 234.667969 469.332031 225.113281 469.332031 213.332031 Z M 42.667969 298.667969 C 42.667969 310.449219 52.21875 320 64 320 L 448 320 C 459.78125 320 469.332031 310.449219 469.332031 298.667969 C 469.332031 286.886719 459.78125 277.332031 448 277.332031 L 64 277.332031 C 52.21875 277.332031 42.667969 286.886719 42.667969 298.667969 Z M 128 384 C 128 395.78125 137.550781 405.332031 149.332031 405.332031 L 448 405.332031 C 459.78125 405.332031 469.332031 395.78125 469.332031 384 C 469.332031 372.21875 459.78125 362.667969 448 362.667969 L 149.332031 362.667969 C 137.550781 362.667969 128 372.21875 128 384 Z M 128 384 "/>
  </g>
</svg>