<?xml version="1.0" encoding="UTF-8" standalone="yes"?>
<svg version="1.1" xmlns="http://www.w3.org/2000/svg" xmlns:xlink="http://www.w3.org/1999/xlink" x="0px" y="0px" viewBox="0 0 512 512" enable-background="new 0 0 512 512" xml:space="preserve">
  <g id="bounds" display="none"><rect display="inline" fill="none" width="512" height="512"/></g><g id="Layer_2">
    <path style=" stroke:none;fill-rule:nonzero;fill:rgb(0%,0%,0%);fill-opacity:1;" d="M 64 149.332031 L 448 149.332031 C 459.78125 149.332031 469.332031 139.78125 469.332031 128 C 469.332031 116.21875 459.78125 106.667969 448 106.667969 L 64 106.667969 C 52.21875 106.667969 42.667969 116.21875 42.667969 128 C 42.667969 139.78125 52.21875 149.332031 64 149.332031 Z M 64 234.667969 L 362.667969 234.667969 C 374.449219 234.667969 384 225.113281 384 213.332031 C 384 201.550781 374.449219 192 362.667969 192 L 64 192 C 52.21875 192 42.667969 201.550781 42.667969 213.332031 C 42.667969 225.113281 52.21875 234.667969 64 234.667969 Z M 448 277.332031 L 64 277.332031 C 52.21875 277.332031 42.667969 286.886719 42.667969 298.667969 C 42.667969 310.449219 52.21875 320 64 320 L 448 320 C 459.78125 320 469.332031 310.449219 469.332031 298.667969 C 469.332031 286.886719 459.78125 277.332031 448 277.332031 Z M 362.667969 362.667969 L 64 362.667969 C 52.21875 362.667969 42.667969 372.21875 42.667969 384 C 42.667969 395.78125 52.21875 405.332031 64 405.332031 L 362.667969 405.332031 C 374.449219 405.332031 384 395.78125 384 384 C 384 372.21875 374.449219 362.667969 362.667969 362.667969 Z M 362.667969 362.667969 "/>
  </g>
</svg>
