<?xml version="1.0" encoding="UTF-8" standalone="yes"?>
<svg version="1.1" xmlns="http://www.w3.org/2000/svg" xmlns:xlink="http://www.w3.org/1999/xlink" x="0px" y="0px" viewBox="0 0 512 512" enable-background="new 0 0 512 512" xml:space="preserve">
  <g id="bounds" display="none"><rect display="inline" fill="none" width="512" height="512"/></g><g id="Layer_2">
    <path style=" stroke:none;fill-rule:nonzero;fill:rgb(0%,0%,0%);fill-opacity:1;" d="M 448 426.667969 L 341.332031 426.667969 C 333.675781 426.667969 326.609375 422.558594 322.8125 415.914062 L 158.289062 128 L 64 128 C 52.21875 128 42.667969 118.449219 42.667969 106.667969 C 42.667969 94.886719 52.21875 85.332031 64 85.332031 L 170.667969 85.332031 C 178.324219 85.332031 185.390625 89.441406 189.1875 96.085938 L 353.710938 384 L 448 384 C 459.78125 384 469.332031 393.550781 469.332031 405.332031 C 469.332031 417.113281 459.78125 426.667969 448 426.667969 Z M 426.667969 106.667969 C 426.667969 94.886719 417.113281 85.332031 405.332031 85.332031 L 298.667969 85.332031 C 286.886719 85.332031 277.332031 94.886719 277.332031 106.667969 C 277.332031 118.449219 286.886719 128 298.667969 128 L 405.332031 128 C 417.113281 128 426.667969 118.449219 426.667969 106.667969 Z M 426.667969 106.667969 "/>
  </g>
</svg>
