<?xml version="1.0" encoding="UTF-8" standalone="yes"?>
<svg version="1.1" xmlns="http://www.w3.org/2000/svg" xmlns:xlink="http://www.w3.org/1999/xlink" x="0px" y="0px" viewBox="0 0 512 512" enable-background="new 0 0 512 512" xml:space="preserve">
  <g id="bounds" display="none"><rect display="inline" fill="none" width="512" height="512"/></g><g id="Layer_2">
    <path style=" stroke:none;fill-rule:nonzero;fill:rgb(0%,0%,0%);fill-opacity:1;" d="M 469.332031 234.667969 C 457.550781 234.667969 448 244.21875 448 256 C 448 354.820312 373.324219 436.175781 277.332031 446.789062 L 277.332031 189.210938 C 314.113281 179.71875 341.332031 146.414062 341.332031 106.667969 C 341.332031 59.542969 303.125 21.332031 256 21.332031 C 208.875 21.332031 170.667969 59.542969 170.667969 106.667969 C 170.667969 146.414062 197.886719 179.71875 234.667969 189.210938 L 234.667969 446.792969 C 138.671875 436.175781 64 354.820312 64 256 C 64 244.21875 54.449219 234.667969 42.667969 234.667969 C 30.886719 234.667969 21.332031 244.21875 21.332031 256 C 21.332031 385.605469 126.398438 490.667969 256 490.667969 C 385.605469 490.667969 490.667969 385.605469 490.667969 256 C 490.667969 244.21875 481.113281 234.667969 469.332031 234.667969 Z M 213.332031 106.667969 C 213.332031 83.105469 232.4375 64 256 64 C 279.5625 64 298.667969 83.105469 298.667969 106.667969 C 298.667969 130.230469 279.5625 149.332031 256 149.332031 C 232.4375 149.332031 213.332031 130.230469 213.332031 106.667969 Z M 213.332031 106.667969 "/>
  </g>
</svg>