<?xml version="1.0" encoding="UTF-8" standalone="yes"?>
<svg version="1.1" xmlns="http://www.w3.org/2000/svg" xmlns:xlink="http://www.w3.org/1999/xlink" x="0px" y="0px" viewBox="0 0 512 512" enable-background="new 0 0 512 512" xml:space="preserve">
  <g id="bounds" display="none"><rect display="inline" fill="none" width="512" height="512"/></g><g id="Layer_2">
    <path style=" stroke:none;fill-rule:nonzero;fill:rgb(0%,0%,0%);fill-opacity:1;" d="M 384 64 L 128 64 L 0 192 L 0 384 C 0 419.359375 29.648438 448 65.003906 448 L 448 448 C 483.359375 448 512 419.359375 512 384 L 512 192.667969 Z M 145.664062 106.667969 L 367.121094 106.667969 L 451.71875 192.433594 L 341.332031 192 C 341.332031 234.667969 303.125 277.332031 256 277.332031 C 208.871094 277.332031 170.667969 234.667969 170.667969 192 L 60.332031 192 Z M 469.332031 384 C 469.332031 395.765625 459.765625 405.332031 448 405.332031 L 65.003906 405.332031 C 52.890625 405.332031 42.667969 395.5625 42.667969 384 L 42.667969 234.667969 L 134.625 234.667969 C 153.050781 283.324219 201.957031 320 255.355469 320 C 308.699219 320 357.242188 283.390625 375.707031 234.800781 L 469.332031 235.167969 Z M 469.332031 384 "/>
  </g>
</svg>