<?xml version="1.0" encoding="UTF-8" standalone="yes"?>
<svg version="1.1" xmlns="http://www.w3.org/2000/svg" xmlns:xlink="http://www.w3.org/1999/xlink" x="0px" y="0px" viewBox="0 0 512 512" enable-background="new 0 0 512 512" xml:space="preserve">
  <g id="bounds" display="none"><rect display="inline" fill="none" width="512" height="512"/></g><g id="Layer_2">
    <path style=" stroke:none;fill-rule:nonzero;fill:rgb(0%,0%,0%);fill-opacity:1;" d="M 362.667969 128 L 362.667969 106.667969 C 362.667969 47.753906 314.910156 0 256 0 C 197.089844 0 149.332031 47.753906 149.332031 106.667969 L 149.332031 128 L 64 128 L 64 448 C 64 483.359375 92.640625 512 128 512 L 384 512 C 419.359375 512 448 483.359375 448 448 L 448 128 Z M 192 106.667969 C 192 71.324219 220.65625 42.667969 256 42.667969 C 291.34375 42.667969 320 71.324219 320 106.667969 L 320 128 L 192 128 Z M 405.332031 448 C 405.332031 459.785156 395.785156 469.332031 384 469.332031 L 128 469.332031 C 116.214844 469.332031 106.667969 459.785156 106.667969 448 L 106.667969 170.667969 L 405.332031 170.667969 Z M 405.332031 448 "/>
  </g>
</svg>