<?xml version="1.0" encoding="UTF-8" standalone="yes"?>
<svg version="1.1" xmlns="http://www.w3.org/2000/svg" xmlns:xlink="http://www.w3.org/1999/xlink" x="0px" y="0px" viewBox="0 0 512 512" enable-background="new 0 0 512 512" xml:space="preserve">
  <g id="bounds" display="none"><rect display="inline" fill="none" width="512" height="512"/></g><g id="Layer_2">
    <path style=" stroke:none;fill-rule:nonzero;fill:rgb(0%,0%,0%);fill-opacity:1;" d="M 256 21.332031 C 220.65625 21.332031 192 49.984375 192 85.332031 L 192 426.667969 C 192 462.015625 220.65625 490.667969 256 490.667969 C 291.34375 490.667969 320 462.015625 320 426.667969 L 320 85.332031 C 320 49.984375 291.34375 21.332031 256 21.332031 Z M 277.332031 426.667969 C 277.332031 438.449219 267.78125 448 256 448 C 244.21875 448 234.667969 438.449219 234.667969 426.667969 L 234.667969 85.332031 C 234.667969 73.550781 244.21875 64 256 64 C 267.78125 64 277.332031 73.550781 277.332031 85.332031 Z M 426.667969 149.332031 C 391.324219 149.332031 362.667969 177.984375 362.667969 213.332031 L 362.667969 426.667969 C 362.667969 462.015625 391.324219 490.667969 426.667969 490.667969 C 462.011719 490.667969 490.667969 462.015625 490.667969 426.667969 L 490.667969 213.332031 C 490.667969 177.984375 462.011719 149.332031 426.667969 149.332031 Z M 448 426.667969 C 448 438.449219 438.449219 448 426.667969 448 C 414.886719 448 405.332031 438.449219 405.332031 426.667969 L 405.332031 213.332031 C 405.332031 201.550781 414.886719 192 426.667969 192 C 438.449219 192 448 201.550781 448 213.332031 Z M 85.332031 277.332031 C 49.988281 277.332031 21.332031 305.984375 21.332031 341.332031 L 21.332031 426.667969 C 21.332031 462.015625 49.988281 490.667969 85.332031 490.667969 C 120.675781 490.667969 149.332031 462.015625 149.332031 426.667969 L 149.332031 341.332031 C 149.332031 305.984375 120.675781 277.332031 85.332031 277.332031 Z M 106.667969 426.667969 C 106.667969 438.449219 97.113281 448 85.332031 448 C 73.550781 448 64 438.449219 64 426.667969 L 64 341.332031 C 64 329.550781 73.550781 320 85.332031 320 C 97.113281 320 106.667969 329.550781 106.667969 341.332031 Z M 106.667969 426.667969 "/>
  </g>
</svg>