<?xml version="1.0" encoding="UTF-8" standalone="yes"?>
<svg version="1.1" xmlns="http://www.w3.org/2000/svg" xmlns:xlink="http://www.w3.org/1999/xlink" x="0px" y="0px" viewBox="0 0 512 512" enable-background="new 0 0 512 512" xml:space="preserve">
  <g id="bounds" display="none"><rect display="inline" fill="none" width="512" height="512"/></g><g id="Layer_2">
    <path style=" stroke:none;fill-rule:nonzero;fill:rgb(0%,0%,0%);fill-opacity:1;" d="M 426.667969 21.332031 C 391.316406 21.332031 362.667969 49.984375 362.667969 85.332031 L 362.667969 426.667969 C 362.667969 462.015625 391.316406 490.667969 426.667969 490.667969 C 462.015625 490.667969 490.667969 462.015625 490.667969 426.667969 L 490.667969 85.332031 C 490.667969 49.984375 462.015625 21.332031 426.667969 21.332031 Z M 448 426.667969 C 448 438.449219 438.449219 448 426.667969 448 C 414.886719 448 405.332031 438.449219 405.332031 426.667969 L 405.332031 85.332031 C 405.332031 73.550781 414.886719 64 426.667969 64 C 438.449219 64 448 73.550781 448 85.332031 Z M 256 149.332031 C 220.652344 149.332031 192 177.984375 192 213.332031 L 192 426.667969 C 192 462.015625 220.652344 490.667969 256 490.667969 C 291.347656 490.667969 320 462.015625 320 426.667969 L 320 213.332031 C 320 177.984375 291.347656 149.332031 256 149.332031 Z M 277.332031 426.667969 C 277.332031 438.449219 267.78125 448 256 448 C 244.21875 448 234.667969 438.449219 234.667969 426.667969 L 234.667969 213.332031 C 234.667969 201.550781 244.21875 192 256 192 C 267.78125 192 277.332031 201.550781 277.332031 213.332031 Z M 85.332031 277.332031 C 49.984375 277.332031 21.332031 305.984375 21.332031 341.332031 L 21.332031 426.667969 C 21.332031 462.015625 49.984375 490.667969 85.332031 490.667969 C 120.683594 490.667969 149.332031 462.015625 149.332031 426.667969 L 149.332031 341.332031 C 149.332031 305.984375 120.683594 277.332031 85.332031 277.332031 Z M 106.667969 426.667969 C 106.667969 438.449219 97.113281 448 85.332031 448 C 73.550781 448 64 438.449219 64 426.667969 L 64 341.332031 C 64 329.550781 73.550781 320 85.332031 320 C 97.113281 320 106.667969 329.550781 106.667969 341.332031 Z M 106.667969 426.667969 "/>
  </g>
</svg>