<?xml version="1.0" encoding="UTF-8" standalone="yes"?>
<svg version="1.1" xmlns="http://www.w3.org/2000/svg" xmlns:xlink="http://www.w3.org/1999/xlink" x="0px" y="0px" viewBox="0 0 512 512" enable-background="new 0 0 512 512" xml:space="preserve">
  <g id="bounds" display="none"><rect display="inline" fill="none" width="512" height="512"/></g><g id="Layer_2">
    <path style=" stroke:none;fill-rule:nonzero;fill:rgb(0%,0%,0%);fill-opacity:1;" d="M 448 170.667969 C 448 135.308594 419.359375 106.667969 384 106.667969 L 64 106.667969 C 28.640625 106.667969 0 135.308594 0 170.667969 L 0 341.332031 C 0 376.691406 28.640625 405.332031 64 405.332031 L 384 405.332031 C 419.359375 405.332031 448 376.691406 448 341.332031 C 483.359375 341.332031 512 312.691406 512 277.332031 L 512 234.667969 C 512 199.308594 483.359375 170.667969 448 170.667969 Z M 405.332031 341.332031 C 405.332031 353.121094 395.785156 362.667969 384 362.667969 L 64 362.667969 C 52.214844 362.667969 42.667969 353.121094 42.667969 341.332031 L 42.667969 170.667969 C 42.667969 158.878906 52.214844 149.332031 64 149.332031 L 384 149.332031 C 395.785156 149.332031 405.332031 158.878906 405.332031 170.667969 Z M 469.332031 277.332031 C 469.332031 289.121094 459.785156 298.667969 448 298.667969 L 448 213.332031 C 459.785156 213.332031 469.332031 222.878906 469.332031 234.667969 Z M 469.332031 277.332031 "/>
  </g>
</svg>
