<?xml version="1.0" encoding="UTF-8" standalone="yes"?>
<svg version="1.1" xmlns="http://www.w3.org/2000/svg" xmlns:xlink="http://www.w3.org/1999/xlink" x="0px" y="0px" viewBox="0 0 512 512" enable-background="new 0 0 512 512" xml:space="preserve">
  <g id="bounds" display="none"><rect display="inline" fill="none" width="512" height="512"/></g><g id="Layer_2">
    <path style=" stroke:none;fill-rule:nonzero;fill:rgb(0%,0%,0%);fill-opacity:1;" d="M 512 405.332031 C 469.332031 362.667969 448 298.667969 426.667969 192 C 408.179688 99.589844 350.238281 21.332031 256 21.332031 C 161.761719 21.332031 103.8125 99.589844 85.332031 192 C 64 298.667969 42.667969 362.667969 0 405.332031 L 195.71875 405.332031 C 193.355469 412.015625 192 419.179688 192 426.667969 C 192 462.011719 220.65625 490.667969 256 490.667969 C 291.34375 490.667969 320 462.011719 320 426.667969 C 320 419.179688 318.644531 412.015625 316.28125 405.332031 Z M 127.171875 200.363281 C 133.566406 168.375 161.769531 64 256 64 C 350.230469 64 378.433594 168.378906 384.828125 200.363281 C 398.046875 266.492188 411.652344 319.523438 431.882812 362.667969 L 80.113281 362.667969 C 100.339844 319.523438 113.945312 266.492188 127.171875 200.363281 Z M 277.332031 426.667969 C 277.332031 438.433594 267.765625 448 256 448 C 244.234375 448 234.667969 438.433594 234.667969 426.667969 C 234.667969 414.902344 244.234375 405.332031 256 405.332031 C 267.765625 405.332031 277.332031 414.902344 277.332031 426.667969 Z M 277.332031 426.667969 "/>
  </g>
</svg>