<?xml version="1.0" encoding="UTF-8" standalone="yes"?>
<svg version="1.1" xmlns="http://www.w3.org/2000/svg" xmlns:xlink="http://www.w3.org/1999/xlink" x="0px" y="0px" viewBox="0 0 512 512" enable-background="new 0 0 512 512" xml:space="preserve">
  <g id="bounds" display="none"><rect display="inline" fill="none" width="512" height="512"/></g><g id="Layer_2">
    <path style=" stroke:none;fill-rule:nonzero;fill:rgb(0%,0%,0%);fill-opacity:1;" d="M 426.667969 106.667969 L 362.667969 106.667969 L 362.667969 85.332031 C 362.667969 49.972656 334.027344 21.332031 298.667969 21.332031 L 213.332031 21.332031 C 177.972656 21.332031 149.332031 49.972656 149.332031 85.332031 L 149.332031 106.667969 L 85.332031 106.667969 C 49.988281 106.667969 21.332031 135.324219 21.332031 170.667969 L 21.332031 384 C 21.332031 419.34375 49.988281 448 85.332031 448 L 426.667969 448 C 462.011719 448 490.667969 419.34375 490.667969 384 L 490.667969 170.667969 C 490.667969 135.324219 462.011719 106.667969 426.667969 106.667969 Z M 362.667969 149.332031 L 362.667969 405.332031 L 149.332031 405.332031 L 149.332031 149.332031 Z M 192 85.332031 C 192 73.546875 201.546875 64 213.332031 64 L 298.667969 64 C 310.453125 64 320 73.546875 320 85.332031 L 320 106.667969 L 192 106.667969 Z M 64 384 L 64 170.667969 C 64 158.878906 73.546875 149.332031 85.332031 149.332031 L 106.667969 149.332031 L 106.667969 405.332031 L 85.332031 405.332031 C 73.546875 405.332031 64 395.785156 64 384 Z M 448 384 C 448 395.785156 438.453125 405.332031 426.667969 405.332031 L 405.332031 405.332031 L 405.332031 149.332031 L 426.667969 149.332031 C 438.453125 149.332031 448 158.878906 448 170.667969 Z M 448 384 "/>
  </g>
</svg>