<?xml version="1.0" encoding="UTF-8" standalone="yes"?>
<svg version="1.1" xmlns="http://www.w3.org/2000/svg" xmlns:xlink="http://www.w3.org/1999/xlink" x="0px" y="0px" viewBox="0 0 512 512" enable-background="new 0 0 512 512" xml:space="preserve">
  <g id="bounds" display="none"><rect display="inline" fill="none" width="512" height="512"/></g><g id="Layer_2">
    <path style=" stroke:none;fill-rule:nonzero;fill:rgb(0%,0%,0%);fill-opacity:1;" d="M 256 21.332031 C 126.398438 21.332031 21.332031 126.394531 21.332031 256 C 21.332031 385.605469 126.398438 490.667969 256 490.667969 C 385.601562 490.667969 490.667969 385.605469 490.667969 256 C 490.667969 126.394531 385.601562 21.332031 256 21.332031 Z M 256 448 C 149.960938 448 64 362.039062 64 256 C 64 149.960938 149.960938 64 256 64 C 362.039062 64 448 149.960938 448 256 C 448 362.039062 362.039062 448 256 448 Z M 341.332031 234.667969 L 170.667969 234.667969 C 158.886719 234.667969 149.332031 244.21875 149.332031 256 C 149.332031 267.78125 158.886719 277.332031 170.667969 277.332031 L 341.332031 277.332031 C 353.113281 277.332031 362.667969 267.78125 362.667969 256 C 362.667969 244.21875 353.113281 234.667969 341.332031 234.667969 Z M 341.332031 234.667969 "/>
  </g>
</svg>