<?xml version="1.0" encoding="UTF-8" standalone="yes"?>
<svg version="1.1" xmlns="http://www.w3.org/2000/svg" xmlns:xlink="http://www.w3.org/1999/xlink" x="0px" y="0px" viewBox="0 0 512 512" enable-background="new 0 0 512 512" xml:space="preserve">
  <g id="bounds" display="none"><rect display="inline" fill="none" width="512" height="512"/></g><g id="Layer_2">
    <path style=" stroke:none;fill-rule:nonzero;fill:rgb(0%,0%,0%);fill-opacity:1;" d="M 256 21.332031 C 126.398438 21.332031 21.332031 126.394531 21.332031 256 C 21.332031 385.605469 126.398438 490.667969 256 490.667969 C 385.601562 490.667969 490.667969 385.605469 490.667969 256 C 490.667969 126.394531 385.601562 21.332031 256 21.332031 Z M 256 448 C 149.960938 448 64 362.039062 64 256 C 64 149.960938 149.960938 64 256 64 C 362.039062 64 448 149.960938 448 256 C 448 362.039062 362.039062 448 256 448 Z M 331.429688 180.582031 C 323.097656 172.25 309.578125 172.25 301.253906 180.582031 L 256 225.828125 L 210.753906 180.585938 C 202.421875 172.257812 188.90625 172.257812 180.574219 180.585938 C 172.246094 188.917969 172.246094 202.433594 180.574219 210.753906 L 225.828125 256 L 180.574219 301.246094 C 172.246094 309.578125 172.246094 323.09375 180.574219 331.414062 C 188.90625 339.742188 202.421875 339.742188 210.753906 331.414062 L 256 286.171875 L 301.246094 331.414062 C 309.578125 339.742188 323.09375 339.742188 331.425781 331.414062 C 339.753906 323.082031 339.753906 309.5625 331.425781 301.246094 L 286.171875 256 L 331.425781 210.753906 C 339.753906 202.414062 339.753906 188.90625 331.429688 180.582031 Z M 331.429688 180.582031 "/>
  </g>
</svg>