<?xml version="1.0" encoding="UTF-8" standalone="yes"?>
<svg version="1.1" xmlns="http://www.w3.org/2000/svg" xmlns:xlink="http://www.w3.org/1999/xlink" x="0px" y="0px" viewBox="0 0 512 512" enable-background="new 0 0 512 512" xml:space="preserve">
  <g id="bounds" display="none"><rect display="inline" fill="none" width="512" height="512"/></g><g id="Layer_2">
    <path style=" stroke:none;fill-rule:nonzero;fill:rgb(0%,0%,0%);fill-opacity:1;" d="M 256 21.332031 C 126.398438 21.332031 21.332031 126.394531 21.332031 256 C 21.332031 385.605469 126.398438 490.667969 256 490.667969 C 385.601562 490.667969 490.667969 385.605469 490.667969 256 C 490.667969 126.394531 385.601562 21.332031 256 21.332031 Z M 256 448 C 149.960938 448 64 362.039062 64 256 C 64 149.960938 149.960938 64 256 64 C 362.039062 64 448 149.960938 448 256 C 448 362.039062 362.039062 448 256 448 Z M 312.675781 198.238281 L 237.246094 273.664062 L 207.082031 243.5 C 198.753906 235.167969 185.246094 235.167969 176.910156 243.5 C 168.582031 251.828125 168.582031 265.339844 176.910156 273.675781 L 222.160156 318.90625 C 230.492188 327.238281 244.003906 327.238281 252.332031 318.90625 L 342.84375 228.398438 C 351.171875 220.070312 351.183594 206.566406 342.847656 198.230469 C 334.523438 189.914062 321.007812 189.914062 312.675781 198.238281 Z M 312.675781 198.238281 "/>
  </g>
</svg>