<?xml version="1.0" encoding="UTF-8" standalone="yes"?>
<svg version="1.1" xmlns="http://www.w3.org/2000/svg" xmlns:xlink="http://www.w3.org/1999/xlink" x="0px" y="0px" viewBox="0 0 512 512" enable-background="new 0 0 512 512" xml:space="preserve">
  <g id="bounds" display="none"><rect display="inline" fill="none" width="512" height="512"/></g><g id="Layer_2">
    <path style=" stroke:none;fill-rule:nonzero;fill:rgb(0%,0%,0%);fill-opacity:1;" d="M 384 64 L 358.949219 64 C 350.144531 39.15625 326.523438 21.332031 298.667969 21.332031 L 213.332031 21.332031 C 185.476562 21.332031 161.855469 39.15625 153.050781 64 L 128 64 C 92.640625 64 64 92.640625 64 128 L 64 426.667969 C 64 462.027344 92.640625 490.667969 128 490.667969 L 384 490.667969 C 419.359375 490.667969 448 462.027344 448 426.667969 L 448 128 C 448 92.640625 419.359375 64 384 64 Z M 213.332031 64 L 298.667969 64 C 310.449219 64 320 73.550781 320 85.332031 C 320 97.113281 310.449219 106.667969 298.667969 106.667969 L 213.332031 106.667969 C 201.550781 106.667969 192 97.113281 192 85.332031 C 192 73.550781 201.550781 64 213.332031 64 Z M 405.332031 426.667969 C 405.332031 438.453125 395.785156 448 384 448 L 128 448 C 116.214844 448 106.667969 438.453125 106.667969 426.667969 L 106.667969 128 C 106.667969 116.214844 116.214844 106.667969 128 106.667969 L 153.050781 106.667969 C 161.839844 131.507812 185.476562 149.332031 213.332031 149.332031 L 298.667969 149.332031 C 326.523438 149.332031 350.144531 131.507812 358.949219 106.667969 L 384 106.667969 C 395.785156 106.667969 405.332031 116.214844 405.332031 128 Z M 405.332031 426.667969 "/>
  </g>
</svg>