<?xml version="1.0" encoding="UTF-8" standalone="yes"?>
<svg version="1.1" xmlns="http://www.w3.org/2000/svg" xmlns:xlink="http://www.w3.org/1999/xlink" x="0px" y="0px" viewBox="0 0 512 512" enable-background="new 0 0 512 512" xml:space="preserve">
  <g id="bounds" display="none"><rect display="inline" fill="none" width="512" height="512"/></g><g id="Layer_2">
    <path style=" stroke:none;fill-rule:nonzero;fill:rgb(0%,0%,0%);fill-opacity:1;" d="M 320 63.996094 C 236.410156 63.996094 165.34375 117.433594 138.976562 191.996094 L 128 191.996094 C 57.3125 191.996094 0 249.300781 0 320 C 0 390.691406 57.3125 448.003906 128.003906 448.003906 C 128.144531 448.003906 128.277344 447.996094 128.414062 447.996094 L 320 447.996094 C 426.039062 447.996094 512 362.03125 512 255.996094 C 512 149.957031 426.039062 63.996094 320 63.996094 Z M 320 405.328125 L 128 405.328125 C 80.875 405.328125 42.667969 367.125 42.667969 319.996094 C 42.667969 272.863281 80.875 234.660156 128 234.660156 L 172.257812 234.660156 C 182.613281 162.308594 244.785156 106.660156 320 106.660156 C 402.476562 106.660156 469.332031 173.519531 469.332031 255.996094 C 469.332031 338.46875 402.476562 405.328125 320 405.328125 Z M 320 405.328125 "/>
  </g>
</svg>