<?xml version="1.0" encoding="UTF-8" standalone="yes"?>
<svg version="1.1" xmlns="http://www.w3.org/2000/svg" xmlns:xlink="http://www.w3.org/1999/xlink" x="0px" y="0px" viewBox="0 0 512 512" enable-background="new 0 0 512 512" xml:space="preserve">
  <g id="bounds" display="none"><rect display="inline" fill="none" width="512" height="512"/></g><g id="Layer_2">
    <path style=" stroke:none;fill-rule:nonzero;fill:rgb(0%,0%,0%);fill-opacity:1;" d="M 512 234.667969 C 512 333.488281 437.328125 414.878906 341.332031 425.492188 L 341.332031 382.484375 C 413.703125 372.132812 469.332031 309.894531 469.332031 234.667969 C 469.332031 152.191406 402.476562 85.332031 320 85.332031 C 244.777344 85.332031 182.613281 140.980469 172.257812 213.332031 L 128 213.332031 C 80.875 213.332031 42.667969 251.535156 42.667969 298.667969 C 42.667969 334.015625 64.15625 364.335938 94.785156 377.296875 C 104.996094 381.609375 116.21875 384 128 384 L 213.332031 384 L 213.332031 426.667969 L 128.414062 426.667969 C 128.277344 426.667969 128.144531 426.675781 128.003906 426.675781 C 57.3125 426.675781 0 369.367188 0 298.671875 C 0 227.972656 57.3125 170.667969 128 170.667969 L 138.976562 170.667969 C 165.34375 96.105469 236.410156 42.667969 320 42.667969 C 426.039062 42.667969 512 128.628906 512 234.667969 Z M 356.414062 313.761719 C 364.746094 305.429688 364.746094 291.921875 356.414062 283.59375 L 292.414062 219.59375 C 288.414062 215.59375 282.988281 213.34375 277.332031 213.34375 C 271.679688 213.34375 266.25 215.59375 262.25 219.59375 L 198.25 283.59375 C 189.921875 291.925781 189.921875 305.433594 198.25 313.761719 C 206.582031 322.089844 220.089844 322.089844 228.414062 313.761719 L 256 286.179688 L 256 426.675781 C 256 438.457031 265.550781 448.011719 277.332031 448.011719 C 289.113281 448.011719 298.667969 438.457031 298.667969 426.675781 L 298.667969 286.179688 L 326.25 313.761719 C 334.574219 322.097656 348.089844 322.097656 356.414062 313.761719 Z M 356.414062 313.761719 "/>
  </g>
</svg>