<?xml version="1.0" encoding="UTF-8" standalone="yes"?>
<svg version="1.1" xmlns="http://www.w3.org/2000/svg" xmlns:xlink="http://www.w3.org/1999/xlink" x="0px" y="0px" viewBox="0 0 512 512" enable-background="new 0 0 512 512" xml:space="preserve">
  <g id="bounds" display="none"><rect display="inline" fill="none" width="512" height="512"/></g><g id="Layer_2">
    <path style=" stroke:none;fill-rule:nonzero;fill:rgb(0%,0%,0%);fill-opacity:1;" d="M 356.414062 347.585938 C 364.746094 355.914062 364.746094 369.425781 356.414062 377.75 L 292.414062 441.75 C 288.414062 445.75 282.992188 448 277.332031 448 C 271.675781 448 266.25 445.75 262.25 441.75 L 198.25 377.75 C 189.921875 369.417969 189.921875 355.910156 198.25 347.585938 C 206.582031 339.253906 220.089844 339.253906 228.414062 347.585938 L 256 375.164062 L 256 234.667969 C 256 222.886719 265.550781 213.332031 277.332031 213.332031 C 289.113281 213.332031 298.667969 222.886719 298.667969 234.667969 L 298.667969 375.164062 L 326.25 347.585938 C 334.574219 339.246094 348.089844 339.246094 356.414062 347.585938 Z M 320 42.667969 C 236.410156 42.667969 165.34375 96.105469 138.976562 170.667969 L 128.015625 170.667969 C 128.015625 170.667969 128.011719 170.667969 128.003906 170.667969 C 57.3125 170.667969 0 227.972656 0 298.671875 C 0 369.367188 57.3125 426.675781 128.003906 426.675781 C 128.144531 426.675781 128.277344 426.667969 128.414062 426.667969 L 186.820312 426.667969 L 168.074219 407.921875 C 161.972656 401.820312 157.253906 394.699219 154.015625 386.726562 C 153.652344 385.820312 153.308594 384.910156 152.988281 383.996094 L 128 383.996094 C 116.21875 383.996094 104.996094 381.609375 94.785156 377.289062 C 64.15625 364.335938 42.667969 334.011719 42.667969 298.667969 C 42.667969 251.535156 80.875 213.332031 128 213.332031 L 172.257812 213.332031 C 182.613281 140.980469 244.777344 85.332031 320 85.332031 C 402.476562 85.332031 469.332031 152.191406 469.332031 234.667969 C 469.332031 285.503906 443.925781 330.410156 405.113281 357.386719 C 405.257812 359.136719 405.332031 360.894531 405.332031 362.667969 C 405.332031 370.960938 403.753906 379.050781 400.644531 386.730469 C 397.414062 394.699219 392.6875 401.824219 386.585938 407.925781 L 376.199219 418.316406 C 454.816406 394.28125 512 321.152344 512 234.667969 C 512 128.628906 426.039062 42.667969 320 42.667969 Z M 320 42.667969 "/>
  </g>
</svg>