<?xml version="1.0" encoding="UTF-8" standalone="yes"?>
<svg version="1.1" xmlns="http://www.w3.org/2000/svg" xmlns:xlink="http://www.w3.org/1999/xlink" x="0px" y="0px" viewBox="0 0 512 512" enable-background="new 0 0 512 512" xml:space="preserve">
  <g id="bounds" display="none"><rect display="inline" fill="none" width="512" height="512"/></g><g id="Layer_2">
    <path style=" stroke:none;fill-rule:nonzero;fill:rgb(0%,0%,0%);fill-opacity:1;" d="M 448 320 C 483.34375 320 512 291.34375 512 256 C 512 220.65625 483.34375 192 448 192 L 437.070312 192 C 434.800781 185.578125 432.203125 179.3125 429.285156 173.222656 L 437.019531 165.492188 C 462.011719 140.496094 462.011719 99.980469 437.019531 74.980469 C 412.019531 49.988281 371.503906 49.988281 346.507812 74.980469 L 338.777344 82.714844 C 332.683594 79.796875 326.421875 77.199219 320 74.929688 L 320 64 C 320 28.65625 291.34375 0 256 0 C 220.65625 0 192 28.65625 192 64 L 192 74.929688 C 185.578125 77.199219 179.3125 79.796875 173.222656 82.714844 L 165.492188 74.980469 C 140.496094 49.988281 99.980469 49.988281 74.980469 74.980469 C 49.988281 99.980469 49.988281 140.496094 74.980469 165.492188 L 82.714844 173.222656 C 79.796875 179.316406 77.199219 185.578125 74.929688 192 L 64 192 C 28.65625 192 0 220.65625 0 256 C 0 291.34375 28.65625 320 64 320 L 74.929688 320 C 77.199219 326.421875 79.796875 332.6875 82.714844 338.777344 L 74.980469 346.507812 C 49.988281 371.503906 49.988281 412.019531 74.980469 437.019531 C 99.980469 462.011719 140.496094 462.011719 165.492188 437.019531 L 173.222656 429.285156 C 179.316406 432.203125 185.578125 434.800781 192 437.070312 L 192 448 C 192 483.34375 220.65625 512 256 512 C 291.34375 512 320 483.34375 320 448 L 320 437.070312 C 326.421875 434.800781 332.6875 432.203125 338.777344 429.285156 L 346.507812 437.019531 C 371.503906 462.011719 412.019531 462.011719 437.019531 437.019531 C 462.011719 412.019531 462.011719 371.503906 437.019531 346.507812 L 429.285156 338.777344 C 432.203125 332.683594 434.800781 326.421875 437.070312 320 Z M 403.824219 277.332031 C 400.203125 302.632812 390.238281 325.886719 375.605469 345.433594 L 406.011719 375.84375 L 406.847656 376.675781 C 415.179688 385.007812 415.179688 398.523438 406.847656 406.847656 C 398.515625 415.171875 385.007812 415.179688 376.675781 406.847656 L 375.84375 406.011719 L 345.433594 375.605469 C 325.886719 390.238281 302.632812 400.203125 277.332031 403.824219 L 277.332031 448 C 277.332031 459.78125 267.78125 469.332031 256 469.332031 C 244.21875 469.332031 234.667969 459.78125 234.667969 448 L 234.667969 403.824219 C 209.367188 400.203125 186.113281 390.238281 166.566406 375.605469 L 136.15625 406.011719 L 135.324219 406.847656 C 126.992188 415.179688 113.476562 415.179688 105.152344 406.847656 C 96.828125 398.515625 96.820312 385.007812 105.152344 376.675781 L 105.988281 375.84375 L 136.394531 345.433594 C 121.761719 325.886719 111.796875 302.632812 108.175781 277.332031 L 64 277.332031 C 52.21875 277.332031 42.667969 267.78125 42.667969 256 C 42.667969 244.21875 52.21875 234.667969 64 234.667969 L 108.175781 234.667969 C 111.796875 209.367188 121.761719 186.113281 136.394531 166.566406 L 105.988281 136.15625 L 105.152344 135.324219 C 96.820312 126.992188 96.820312 113.476562 105.152344 105.152344 C 113.484375 96.828125 126.992188 96.820312 135.324219 105.152344 L 136.15625 105.988281 L 166.566406 136.394531 C 186.113281 121.761719 209.359375 111.796875 234.667969 108.175781 L 234.667969 64 C 234.667969 52.21875 244.21875 42.667969 256 42.667969 C 267.78125 42.667969 277.332031 52.21875 277.332031 64 L 277.332031 108.175781 C 302.632812 111.796875 325.886719 121.761719 345.433594 136.394531 L 375.84375 105.988281 L 376.675781 105.152344 C 385.007812 96.820312 398.523438 96.820312 406.847656 105.152344 C 415.171875 113.484375 415.179688 126.992188 406.847656 135.324219 L 406.011719 136.15625 L 375.605469 166.566406 C 390.238281 186.113281 400.203125 209.359375 403.824219 234.667969 L 448 234.667969 C 459.78125 234.667969 469.332031 244.21875 469.332031 256 C 469.332031 267.78125 459.78125 277.332031 448 277.332031 Z M 256 170.667969 C 208.871094 170.667969 170.667969 208.871094 170.667969 256 C 170.667969 303.128906 208.871094 341.332031 256 341.332031 C 303.128906 341.332031 341.332031 303.128906 341.332031 256 C 341.332031 208.871094 303.128906 170.667969 256 170.667969 Z M 256 298.667969 C 232.4375 298.667969 213.332031 279.5625 213.332031 256 C 213.332031 232.4375 232.4375 213.332031 256 213.332031 C 279.5625 213.332031 298.667969 232.4375 298.667969 256 C 298.667969 279.5625 279.5625 298.667969 256 298.667969 Z M 256 298.667969 "/>
  </g>
</svg>