<?xml version="1.0" encoding="UTF-8" standalone="yes"?>
<svg version="1.1" xmlns="http://www.w3.org/2000/svg" xmlns:xlink="http://www.w3.org/1999/xlink" x="0px" y="0px" viewBox="0 0 512 512" enable-background="new 0 0 512 512" xml:space="preserve">
  <g id="bounds" display="none"><rect display="inline" fill="none" width="512" height="512"/></g><g id="Layer_2">
    <path style=" stroke:none;fill-rule:nonzero;fill:rgb(0%,0%,0%);fill-opacity:1;" d="M 448 64 L 64 64 C 28.640625 64 0 92.640625 0 128 L 0 384 C 0 419.359375 28.640625 448 64 448 L 448 448 C 483.359375 448 512 419.359375 512 384 L 512 128 C 512 92.640625 483.359375 64 448 64 Z M 320 106.667969 L 320 405.332031 L 192 405.332031 L 192 106.667969 Z M 42.667969 384 L 42.667969 128 C 42.667969 116.214844 52.214844 106.667969 64 106.667969 L 149.332031 106.667969 L 149.332031 405.332031 L 64 405.332031 C 52.214844 405.332031 42.667969 395.785156 42.667969 384 Z M 469.332031 384 C 469.332031 395.785156 459.785156 405.332031 448 405.332031 L 362.667969 405.332031 L 362.667969 106.667969 L 448 106.667969 C 459.785156 106.667969 469.332031 116.214844 469.332031 128 Z M 469.332031 384 "/>
  </g>
</svg>