<?xml version="1.0" encoding="UTF-8" standalone="yes"?>
<svg version="1.1" xmlns="http://www.w3.org/2000/svg" xmlns:xlink="http://www.w3.org/1999/xlink" x="0px" y="0px" viewBox="0 0 512 512" enable-background="new 0 0 512 512" xml:space="preserve">
  <g id="bounds" display="none"><rect display="inline" fill="none" width="512" height="512"/></g><g id="Layer_2">
    <path style=" stroke:none;fill-rule:nonzero;fill:rgb(0%,0%,0%);fill-opacity:1;" d="M 384 298.667969 L 341.332031 298.667969 L 341.332031 213.332031 L 384 213.332031 C 431.125 213.332031 469.332031 175.125 469.332031 128 C 469.332031 80.875 431.125 42.667969 384 42.667969 C 336.871094 42.667969 298.667969 80.875 298.667969 128 L 298.667969 170.667969 L 213.332031 170.667969 L 213.332031 128 C 213.332031 80.875 175.125 42.667969 128 42.667969 C 80.875 42.667969 42.667969 80.875 42.667969 128 C 42.667969 175.125 80.875 213.332031 128 213.332031 L 170.667969 213.332031 L 170.667969 298.667969 L 128 298.667969 C 80.875 298.667969 42.667969 336.875 42.667969 384 C 42.667969 431.125 80.875 469.332031 128 469.332031 C 175.128906 469.332031 213.332031 431.125 213.332031 384 L 213.332031 341.332031 L 298.667969 341.332031 L 298.667969 383.894531 C 298.667969 383.9375 298.660156 383.96875 298.660156 384 C 298.660156 431.125 336.871094 469.332031 383.996094 469.332031 C 431.121094 469.332031 469.328125 431.125 469.328125 384 C 469.328125 336.875 431.125 298.675781 384 298.667969 Z M 384 85.332031 C 407.5625 85.332031 426.667969 104.4375 426.667969 128 C 426.667969 151.5625 407.5625 170.667969 384 170.667969 L 341.332031 170.667969 L 341.332031 128 C 341.332031 104.4375 360.4375 85.332031 384 85.332031 Z M 85.332031 128 C 85.332031 104.4375 104.4375 85.332031 128 85.332031 C 151.5625 85.332031 170.667969 104.4375 170.667969 128 L 170.667969 170.667969 L 128 170.667969 C 104.4375 170.667969 85.332031 151.558594 85.332031 128 Z M 128 426.667969 C 104.4375 426.667969 85.332031 407.5625 85.332031 384 C 85.332031 360.4375 104.4375 341.332031 128 341.332031 L 170.667969 341.332031 L 170.667969 384 C 170.667969 407.5625 151.5625 426.667969 128 426.667969 Z M 213.332031 298.667969 L 213.332031 213.332031 L 298.667969 213.332031 L 298.667969 298.667969 Z M 384 426.667969 C 360.4375 426.667969 341.332031 407.5625 341.332031 384 L 341.332031 341.332031 L 383.996094 341.332031 C 407.558594 341.332031 426.660156 360.4375 426.660156 384 C 426.660156 407.5625 407.5625 426.667969 384 426.667969 Z M 384 426.667969 "/>
  </g>
</svg>