<?xml version="1.0" encoding="UTF-8" standalone="yes"?>
<svg version="1.1" xmlns="http://www.w3.org/2000/svg" xmlns:xlink="http://www.w3.org/1999/xlink" x="0px" y="0px" viewBox="0 0 512 512" enable-background="new 0 0 512 512" xml:space="preserve">
  <g id="bounds" display="none"><rect display="inline" fill="none" width="512" height="512"/></g><g id="Layer_2">
    <path style=" stroke:none;fill-rule:nonzero;fill:rgb(0%,0%,0%);fill-opacity:1;" d="M 405.332031 170.667969 L 469.332031 170.667969 C 481.113281 170.667969 490.667969 161.113281 490.667969 149.332031 C 490.667969 137.550781 481.113281 128 469.332031 128 L 405.332031 128 C 393.546875 128 384 118.453125 384 106.667969 L 384 42.667969 C 384 30.886719 374.449219 21.332031 362.667969 21.332031 C 350.886719 21.332031 341.332031 30.886719 341.332031 42.667969 L 341.332031 106.667969 C 341.332031 142.011719 369.988281 170.667969 405.332031 170.667969 Z M 42.667969 170.667969 L 106.667969 170.667969 C 142.011719 170.667969 170.667969 142.011719 170.667969 106.667969 L 170.667969 42.667969 C 170.667969 30.886719 161.113281 21.332031 149.332031 21.332031 C 137.550781 21.332031 128 30.886719 128 42.667969 L 128 106.667969 C 128 118.453125 118.453125 128 106.667969 128 L 42.667969 128 C 30.886719 128 21.332031 137.550781 21.332031 149.332031 C 21.332031 161.113281 30.886719 170.667969 42.667969 170.667969 Z M 362.667969 490.667969 C 374.449219 490.667969 384 481.113281 384 469.332031 L 384 405.332031 C 384 393.546875 393.546875 384 405.332031 384 L 469.332031 384 C 481.113281 384 490.667969 374.449219 490.667969 362.667969 C 490.667969 350.886719 481.113281 341.332031 469.332031 341.332031 L 405.332031 341.332031 C 369.988281 341.332031 341.332031 369.988281 341.332031 405.332031 L 341.332031 469.332031 C 341.332031 481.113281 350.886719 490.667969 362.667969 490.667969 Z M 42.667969 384 L 106.667969 384 C 118.453125 384 128 393.546875 128 405.332031 L 128 469.332031 C 128 481.113281 137.550781 490.667969 149.332031 490.667969 C 161.113281 490.667969 170.667969 481.113281 170.667969 469.332031 L 170.667969 405.332031 C 170.667969 369.988281 142.011719 341.332031 106.667969 341.332031 L 42.667969 341.332031 C 30.886719 341.332031 21.332031 350.886719 21.332031 362.667969 C 21.332031 374.449219 30.886719 384 42.667969 384 Z M 42.667969 384 "/>
  </g>
</svg>