<?xml version="1.0" encoding="UTF-8" standalone="yes"?>
<svg version="1.1" xmlns="http://www.w3.org/2000/svg" xmlns:xlink="http://www.w3.org/1999/xlink" x="0px" y="0px" viewBox="0 0 512 512" enable-background="new 0 0 512 512" xml:space="preserve">
  <g id="bounds" display="none"><rect display="inline" fill="none" width="512" height="512"/></g><g id="Layer_2">
    <path style=" stroke:none;fill-rule:nonzero;fill:rgb(0%,0%,0%);fill-opacity:1;" d="M 170.667969 21.332031 L 85.332031 21.332031 C 49.972656 21.332031 21.332031 49.972656 21.332031 85.332031 L 21.332031 170.667969 C 21.332031 206.027344 49.972656 234.667969 85.332031 234.667969 L 170.667969 234.667969 C 206.027344 234.667969 234.667969 206.027344 234.667969 170.667969 L 234.667969 85.332031 C 234.667969 49.972656 206.027344 21.332031 170.667969 21.332031 Z M 192 170.667969 C 192 182.453125 182.453125 192 170.667969 192 L 85.332031 192 C 73.546875 192 64 182.453125 64 170.667969 L 64 85.332031 C 64 73.546875 73.546875 64 85.332031 64 L 170.667969 64 C 182.453125 64 192 73.546875 192 85.332031 Z M 426.667969 21.332031 L 341.332031 21.332031 C 305.972656 21.332031 277.332031 49.972656 277.332031 85.332031 L 277.332031 426.667969 C 277.332031 462.027344 305.972656 490.667969 341.332031 490.667969 L 426.667969 490.667969 C 462.027344 490.667969 490.667969 462.027344 490.667969 426.667969 L 490.667969 85.332031 C 490.667969 49.972656 462.027344 21.332031 426.667969 21.332031 Z M 448 426.667969 C 448 438.453125 438.453125 448 426.667969 448 L 341.332031 448 C 329.546875 448 320 438.453125 320 426.667969 L 320 85.332031 C 320 73.546875 329.546875 64 341.332031 64 L 426.667969 64 C 438.453125 64 448 73.546875 448 85.332031 Z M 170.667969 277.332031 L 85.332031 277.332031 C 49.972656 277.332031 21.332031 305.972656 21.332031 341.332031 L 21.332031 426.667969 C 21.332031 462.027344 49.972656 490.667969 85.332031 490.667969 L 170.667969 490.667969 C 206.027344 490.667969 234.667969 462.027344 234.667969 426.667969 L 234.667969 341.332031 C 234.667969 305.972656 206.027344 277.332031 170.667969 277.332031 Z M 192 426.667969 C 192 438.453125 182.453125 448 170.667969 448 L 85.332031 448 C 73.546875 448 64 438.453125 64 426.667969 L 64 341.332031 C 64 329.546875 73.546875 320 85.332031 320 L 170.667969 320 C 182.453125 320 192 329.546875 192 341.332031 Z M 192 426.667969 "/>
  </g>
</svg>