<?xml version="1.0" encoding="UTF-8" standalone="yes"?>
<svg version="1.1" xmlns="http://www.w3.org/2000/svg" xmlns:xlink="http://www.w3.org/1999/xlink" x="0px" y="0px" viewBox="0 0 512 512" enable-background="new 0 0 512 512" xml:space="preserve">
  <g id="bounds" display="none"><rect display="inline" fill="none" width="512" height="512"/></g><g id="Layer_2">
    <path style=" stroke:none;fill-rule:nonzero;fill:rgb(0%,0%,0%);fill-opacity:1;" d="M 448 64 L 170.667969 64 L 0 256 L 170.667969 448 L 448 448 C 483.34375 448 512 419.34375 512 384 L 512 128 C 512 92.65625 483.34375 64 448 64 Z M 469.332031 384 C 469.332031 395.765625 459.765625 405.332031 448 405.332031 L 189.828125 405.332031 L 57.089844 256 L 189.828125 106.667969 L 448 106.667969 C 459.765625 106.667969 469.332031 116.234375 469.332031 128 Z M 399.082031 304.917969 C 407.414062 313.246094 407.414062 326.757812 399.082031 335.082031 C 394.917969 339.246094 389.457031 341.332031 384 341.332031 C 378.542969 341.332031 373.082031 339.246094 368.917969 335.082031 L 320 286.171875 L 271.082031 335.082031 C 266.917969 339.246094 261.457031 341.332031 256 341.332031 C 250.542969 341.332031 245.082031 339.246094 240.917969 335.082031 C 232.585938 326.753906 232.585938 313.242188 240.917969 304.917969 L 289.828125 256 L 240.917969 207.082031 C 232.585938 198.753906 232.585938 185.242188 240.917969 176.917969 C 249.246094 168.585938 262.757812 168.585938 271.082031 176.917969 L 320 225.828125 L 368.917969 176.917969 C 377.246094 168.585938 390.757812 168.585938 399.082031 176.917969 C 407.414062 185.246094 407.414062 198.757812 399.082031 207.082031 L 350.171875 256 Z M 399.082031 304.917969 "/>
  </g>
</svg>