<?xml version="1.0" encoding="UTF-8" standalone="yes"?>
<svg version="1.1" xmlns="http://www.w3.org/2000/svg" xmlns:xlink="http://www.w3.org/1999/xlink" x="0px" y="0px" viewBox="0 0 512 512" enable-background="new 0 0 512 512" xml:space="preserve">
  <g id="bounds" display="none"><rect display="inline" fill="none" width="512" height="512"/></g><g id="Layer_2">
    <path style=" stroke:none;fill-rule:nonzero;fill:rgb(0%,0%,0%);fill-opacity:1;" d="M 256 490.667969 C 226.261719 490.667969 197.269531 485.171875 169.835938 474.335938 C 143.332031 463.871094 119.179688 448.800781 98.027344 429.535156 C 55.035156 390.375 28.214844 337.070312 22.492188 279.445312 C 21.328125 267.722656 29.886719 257.273438 41.617188 256.105469 C 53.339844 254.9375 63.785156 263.503906 64.949219 275.226562 C 69.625 322.351562 91.578125 365.953125 126.757812 397.996094 C 144.070312 413.765625 163.835938 426.101562 185.507812 434.65625 C 207.929688 443.507812 231.652344 448 256 448 C 281.925781 448 307.070312 442.929688 330.730469 432.921875 C 342.101562 428.113281 353.070312 422.15625 363.332031 415.226562 C 373.503906 408.351562 383.070312 400.457031 391.765625 391.769531 C 400.457031 383.082031 408.347656 373.507812 415.222656 363.339844 C 422.15625 353.078125 428.105469 342.105469 432.917969 330.734375 C 442.929688 307.070312 448 281.925781 448 256 C 448 231.652344 443.507812 207.929688 434.652344 185.503906 C 426.097656 163.835938 413.761719 144.070312 397.988281 126.753906 C 365.945312 91.574219 322.347656 69.621094 275.222656 64.945312 C 263.5 63.78125 254.933594 53.332031 256.101562 41.609375 C 257.269531 29.882812 267.710938 21.324219 279.441406 22.484375 C 337.070312 28.207031 390.375 55.039062 429.53125 98.019531 C 448.792969 119.171875 463.867188 143.328125 474.332031 169.828125 C 485.171875 197.269531 490.667969 226.261719 490.667969 256 C 490.667969 287.667969 484.457031 318.40625 472.21875 347.347656 C 466.332031 361.257812 459.050781 374.671875 450.574219 387.222656 C 442.1875 399.644531 432.542969 411.328125 421.929688 421.9375 C 411.324219 432.550781 399.636719 442.191406 387.214844 450.582031 C 374.667969 459.054688 361.257812 466.335938 347.34375 472.222656 C 318.40625 484.457031 287.667969 490.667969 256 490.667969 Z M 271.082031 240.917969 L 94.171875 64 L 170.667969 64 C 182.449219 64 192 54.449219 192 42.667969 C 192 30.886719 182.449219 21.332031 170.667969 21.332031 L 42.667969 21.332031 C 30.886719 21.332031 21.332031 30.886719 21.332031 42.667969 L 21.332031 170.667969 C 21.332031 182.449219 30.886719 192 42.667969 192 C 54.449219 192 64 182.449219 64 170.667969 L 64 94.171875 L 240.917969 271.082031 C 245.082031 275.246094 250.542969 277.332031 256 277.332031 C 261.457031 277.332031 266.917969 275.246094 271.082031 271.082031 C 279.417969 262.757812 279.417969 249.242188 271.082031 240.917969 Z M 271.082031 240.917969 "/>
  </g>
</svg>