<?xml version="1.0" encoding="UTF-8" standalone="yes"?>
<svg version="1.1" xmlns="http://www.w3.org/2000/svg" xmlns:xlink="http://www.w3.org/1999/xlink" x="0px" y="0px" viewBox="0 0 512 512" enable-background="new 0 0 512 512" xml:space="preserve">
  <g id="bounds" display="none"><rect display="inline" fill="none" width="512" height="512"/></g><g id="Layer_2">
    <path style=" stroke:none;fill-rule:nonzero;fill:rgb(0%,0%,0%);fill-opacity:1;" d="M 426.667969 21.332031 L 362.667969 21.332031 C 350.886719 21.332031 341.332031 30.886719 341.332031 42.667969 C 341.332031 54.449219 350.886719 64 362.667969 64 L 426.667969 64 C 438.453125 64 448 73.550781 448 85.332031 L 448 149.332031 C 448 161.113281 457.550781 170.667969 469.332031 170.667969 C 481.113281 170.667969 490.667969 161.113281 490.667969 149.332031 L 490.667969 85.332031 C 490.667969 49.988281 462.011719 21.332031 426.667969 21.332031 Z M 149.332031 21.332031 L 85.332031 21.332031 C 49.988281 21.332031 21.332031 49.988281 21.332031 85.332031 L 21.332031 149.332031 C 21.332031 161.113281 30.886719 170.667969 42.667969 170.667969 C 54.449219 170.667969 64 161.113281 64 149.332031 L 64 85.332031 C 64 73.550781 73.550781 64 85.332031 64 L 149.332031 64 C 161.113281 64 170.667969 54.449219 170.667969 42.671875 C 170.667969 30.886719 161.113281 21.332031 149.332031 21.332031 Z M 469.332031 341.332031 C 457.550781 341.332031 448 350.886719 448 362.667969 L 448 426.667969 C 448 438.453125 438.453125 448 426.667969 448 L 362.667969 448 C 350.886719 448 341.332031 457.550781 341.332031 469.332031 C 341.332031 481.113281 350.886719 490.667969 362.667969 490.667969 L 426.667969 490.667969 C 462.011719 490.667969 490.667969 462.011719 490.667969 426.667969 L 490.667969 362.667969 C 490.667969 350.886719 481.113281 341.332031 469.332031 341.332031 Z M 149.332031 448 L 85.332031 448 C 73.550781 448 64 438.453125 64 426.667969 L 64 362.667969 C 64 350.886719 54.449219 341.332031 42.671875 341.332031 C 30.886719 341.332031 21.339844 350.886719 21.339844 362.667969 L 21.339844 426.667969 C 21.339844 462.011719 49.996094 490.667969 85.339844 490.667969 L 149.339844 490.667969 C 161.121094 490.667969 170.671875 481.113281 170.671875 469.332031 C 170.671875 457.550781 161.113281 448 149.332031 448 Z M 149.332031 448 "/>
  </g>
</svg>