<?xml version="1.0" encoding="UTF-8" standalone="yes"?>
<svg version="1.1" xmlns="http://www.w3.org/2000/svg" xmlns:xlink="http://www.w3.org/1999/xlink" x="0px" y="0px" viewBox="0 0 512 512" enable-background="new 0 0 512 512" xml:space="preserve">
  <g id="bounds" display="none"><rect display="inline" fill="none" width="512" height="512"/></g><g id="Layer_2">
    <path style=" stroke:none;fill-rule:nonzero;fill:rgb(0%,0%,0%);fill-opacity:1;" d="M 256 64 C 85.332031 64 0 256.886719 0 256.886719 C 0 256.886719 85.332031 448 256 448 C 426.667969 448 512 256 512 256 C 512 256 426.667969 64 256 64 Z M 256 405.332031 C 143.222656 405.332031 72.015625 299.296875 48.015625 256.789062 C 72 213.878906 143.222656 106.667969 256 106.667969 C 368.800781 106.667969 440.011719 213.324219 463.988281 256 C 439.96875 298.753906 368.773438 405.332031 256 405.332031 Z M 256 170.667969 C 208.875 170.667969 170.667969 208.875 170.667969 256 C 170.667969 303.128906 208.875 341.332031 256 341.332031 C 303.128906 341.332031 341.332031 303.128906 341.332031 256 C 341.332031 208.875 303.128906 170.667969 256 170.667969 Z M 256 298.667969 C 232.476562 298.667969 213.332031 279.523438 213.332031 256 C 213.332031 232.476562 232.476562 213.332031 256 213.332031 C 279.523438 213.332031 298.667969 232.476562 298.667969 256 C 298.667969 279.523438 279.523438 298.667969 256 298.667969 Z M 256 298.667969 "/>
  </g>
</svg>