<?xml version="1.0" encoding="UTF-8" standalone="yes"?>
<svg version="1.1" xmlns="http://www.w3.org/2000/svg" xmlns:xlink="http://www.w3.org/1999/xlink" x="0px" y="0px" viewBox="0 0 512 512" enable-background="new 0 0 512 512" xml:space="preserve">
  <g id="bounds" display="none"><rect display="inline" fill="none" width="512" height="512"/></g><g id="Layer_2">
    <path style=" stroke:none;fill-rule:nonzero;fill:rgb(0%,0%,0%);fill-opacity:1;" d="M 341.332031 64 C 277.332031 64 213.332031 21.332031 149.332031 21.332031 C 85.332031 21.332031 42.667969 42.667969 42.667969 42.667969 L 42.667969 469.332031 C 42.667969 481.113281 52.21875 490.667969 64 490.667969 C 75.78125 490.667969 85.332031 481.113281 85.332031 469.332031 L 85.332031 327.226562 C 102.554688 323.257812 124.316406 320 149.332031 320 C 213.332031 320 277.332031 362.667969 341.332031 362.667969 C 405.332031 362.667969 448 341.332031 448 341.332031 L 448 42.667969 C 448 42.667969 405.332031 64 341.332031 64 Z M 405.332031 311.429688 C 384.542969 317.199219 362.902344 320 341.332031 320 C 310.144531 320 279.703125 307.75 250.535156 298.101562 C 217.769531 287.257812 184.144531 277.332031 149.332031 277.332031 C 127.867188 277.332031 106.390625 279.425781 85.332031 283.601562 L 85.332031 72.570312 C 106.121094 66.800781 127.761719 64 149.332031 64 C 180.523438 64 210.964844 76.25 240.132812 85.898438 C 272.894531 96.742188 306.523438 106.667969 341.332031 106.667969 C 362.800781 106.667969 384.277344 104.574219 405.332031 100.398438 Z M 405.332031 311.429688 "/>
  </g>
</svg>