<?xml version="1.0" encoding="UTF-8" standalone="yes"?>
<svg version="1.1" xmlns="http://www.w3.org/2000/svg" xmlns:xlink="http://www.w3.org/1999/xlink" x="0px" y="0px" viewBox="0 0 512 512" enable-background="new 0 0 512 512" xml:space="preserve">
  <g id="bounds" display="none"><rect display="inline" fill="none" width="512" height="512"/></g><g id="Layer_2">
    <path style=" stroke:none;fill-rule:nonzero;fill:rgb(0%,0%,0%);fill-opacity:1;" d="M 426.667969 21.332031 L 85.332031 21.332031 C 49.972656 21.332031 21.332031 49.972656 21.332031 85.332031 L 21.332031 426.667969 C 21.332031 462.027344 49.972656 490.667969 85.332031 490.667969 L 426.667969 490.667969 C 462.027344 490.667969 490.667969 462.027344 490.667969 426.667969 L 490.667969 85.332031 C 490.667969 49.972656 462.027344 21.332031 426.667969 21.332031 Z M 448 85.332031 L 448 234.667969 L 277.332031 234.667969 L 277.332031 64 L 426.667969 64 C 438.453125 64 448 73.546875 448 85.332031 Z M 85.332031 64 L 234.667969 64 L 234.667969 234.667969 L 64 234.667969 L 64 85.332031 C 64 73.546875 73.546875 64 85.332031 64 Z M 64 426.667969 L 64 277.332031 L 234.667969 277.332031 L 234.667969 448 L 85.332031 448 C 73.546875 448 64 438.453125 64 426.667969 Z M 426.667969 448 L 277.332031 448 L 277.332031 277.332031 L 448 277.332031 L 448 426.667969 C 448 438.453125 438.453125 448 426.667969 448 Z M 426.667969 448 "/>
  </g>
</svg>