<?xml version="1.0" encoding="UTF-8" standalone="yes"?>
<svg version="1.1" xmlns="http://www.w3.org/2000/svg" xmlns:xlink="http://www.w3.org/1999/xlink" x="0px" y="0px" viewBox="0 0 512 512" enable-background="new 0 0 512 512" xml:space="preserve">
  <g id="bounds" display="none"><rect display="inline" fill="none" width="512" height="512"/></g><g id="Layer_2">
    <path style=" stroke:none;fill-rule:nonzero;fill:rgb(0%,0%,0%);fill-opacity:1;" d="M 134.25 249.753906 C 125.921875 241.425781 125.921875 227.914062 134.25 219.585938 C 142.582031 211.253906 156.089844 211.253906 164.421875 219.585938 L 234.667969 289.835938 L 234.667969 42.667969 C 234.667969 30.890625 244.222656 21.332031 256 21.332031 C 267.78125 21.332031 277.332031 30.890625 277.332031 42.667969 L 277.332031 289.828125 L 347.585938 219.585938 C 355.914062 211.253906 369.425781 211.253906 377.75 219.585938 C 386.078125 227.914062 386.078125 241.425781 377.75 249.753906 L 271.082031 356.421875 C 266.917969 360.582031 261.457031 362.671875 256 362.671875 C 250.539062 362.671875 245.082031 360.582031 240.910156 356.421875 Z M 469.332031 320.003906 C 457.550781 320.003906 448 329.558594 448 341.332031 L 448 426.671875 C 448 438.433594 438.683594 448 427.226562 448 L 85.332031 448 C 73.574219 448 64 438.433594 64 426.671875 L 64 341.332031 C 64 329.558594 54.449219 320.003906 42.671875 320.003906 C 30.886719 320.003906 21.339844 329.558594 21.339844 341.332031 L 21.339844 426.671875 C 21.339844 435.300781 23.035156 443.679688 26.375 451.589844 C 29.59375 459.214844 34.207031 466.054688 40.078125 471.925781 C 45.953125 477.792969 52.792969 482.40625 60.414062 485.625 C 68.320312 488.980469 76.699219 490.667969 85.332031 490.667969 L 427.226562 490.667969 C 435.8125 490.667969 444.15625 488.960938 452.015625 485.589844 C 459.578125 482.351562 466.363281 477.71875 472.175781 471.824219 C 477.980469 465.953125 482.523438 459.109375 485.703125 451.492188 C 488.992188 443.617188 490.660156 435.265625 490.660156 426.671875 L 490.660156 341.332031 C 490.667969 329.558594 481.113281 320.003906 469.332031 320.003906 Z M 469.332031 320.003906 "/>
  </g>
</svg>