<?xml version="1.0" encoding="UTF-8" standalone="yes"?>
<svg version="1.1" xmlns="http://www.w3.org/2000/svg" xmlns:xlink="http://www.w3.org/1999/xlink" x="0px" y="0px" viewBox="0 0 512 512" enable-background="new 0 0 512 512" xml:space="preserve">
  <g id="bounds" display="none"><rect display="inline" fill="none" width="512" height="512"/></g><g id="Layer_2">
    <path style=" stroke:none;fill-rule:nonzero;fill:rgb(0%,0%,0%);fill-opacity:1;" d="M 256 21.332031 C 126.398438 21.332031 21.332031 126.398438 21.332031 256 C 21.332031 385.605469 126.398438 490.667969 256 490.667969 C 385.605469 490.667969 490.667969 385.605469 490.667969 256 C 490.667969 126.398438 385.605469 21.332031 256 21.332031 Z M 277.332031 446.789062 L 277.332031 384 C 277.332031 372.21875 267.78125 362.667969 256 362.667969 C 244.222656 362.667969 234.667969 372.21875 234.667969 384 L 234.667969 446.789062 C 145.679688 436.949219 75.050781 366.324219 65.214844 277.332031 L 128 277.332031 C 139.78125 277.332031 149.332031 267.78125 149.332031 256 C 149.332031 244.222656 139.78125 234.667969 128 234.667969 L 65.214844 234.667969 C 75.050781 145.679688 145.679688 75.050781 234.667969 65.214844 L 234.667969 128 C 234.667969 139.777344 244.222656 149.332031 256 149.332031 C 267.78125 149.332031 277.332031 139.777344 277.332031 128 L 277.332031 65.214844 C 366.324219 75.050781 436.949219 145.679688 446.789062 234.667969 L 384 234.667969 C 372.21875 234.667969 362.667969 244.222656 362.667969 256 C 362.667969 267.78125 372.21875 277.332031 384 277.332031 L 446.789062 277.332031 C 436.949219 366.324219 366.324219 436.949219 277.332031 446.789062 Z M 277.332031 446.789062 "/>
  </g>
</svg>