<?xml version="1.0" encoding="UTF-8" standalone="yes"?>
<svg version="1.1" xmlns="http://www.w3.org/2000/svg" xmlns:xlink="http://www.w3.org/1999/xlink" x="0px" y="0px" viewBox="0 0 512 512" enable-background="new 0 0 512 512" xml:space="preserve">
  <g id="bounds" display="none"><rect display="inline" fill="none" width="512" height="512"/></g><g id="Layer_2">
    <path style=" stroke:none;fill-rule:nonzero;fill:rgb(0%,0%,0%);fill-opacity:1;" d="M 426.667969 234.667969 L 384 234.667969 L 384 149.332031 C 384 78.640625 326.691406 21.332031 256 21.332031 C 185.308594 21.332031 128 78.640625 128 149.332031 L 128 234.667969 L 85.332031 234.667969 C 49.972656 234.667969 21.332031 263.308594 21.332031 298.667969 L 21.332031 426.667969 C 21.332031 462.027344 49.972656 490.667969 85.332031 490.667969 L 426.667969 490.667969 C 462.027344 490.667969 490.667969 462.027344 490.667969 426.667969 L 490.667969 298.667969 C 490.667969 263.308594 462.027344 234.667969 426.667969 234.667969 Z M 170.667969 149.332031 C 170.667969 102.207031 208.875 64 256 64 C 303.125 64 341.332031 102.207031 341.332031 149.332031 L 341.332031 234.667969 L 170.667969 234.667969 Z M 448 426.667969 C 448 438.453125 438.453125 448 426.667969 448 L 85.332031 448 C 73.546875 448 64 438.453125 64 426.667969 L 64 298.667969 C 64 286.878906 73.546875 277.332031 85.332031 277.332031 L 426.667969 277.332031 C 438.453125 277.332031 448 286.878906 448 298.667969 Z M 448 426.667969 "/>
  </g>
</svg>