<?xml version="1.0" encoding="UTF-8" standalone="yes"?>
<svg version="1.1" xmlns="http://www.w3.org/2000/svg" xmlns:xlink="http://www.w3.org/1999/xlink" x="0px" y="0px" viewBox="0 0 512 512" enable-background="new 0 0 512 512" xml:space="preserve">
  <g id="bounds" display="none"><rect display="inline" fill="none" width="512" height="512"/></g><g id="Layer_2">
    <path style=" stroke:none;fill-rule:nonzero;fill:rgb(0%,0%,0%);fill-opacity:1;" d="M 149.332031 42.667969 C 149.332031 54.453125 139.785156 64 128 64 L 85.332031 64 C 73.546875 64 64 73.546875 64 85.332031 L 64 128 C 64 139.785156 54.453125 149.332031 42.667969 149.332031 C 30.878906 149.332031 21.332031 139.785156 21.332031 128 L 21.332031 85.332031 C 21.332031 49.972656 49.972656 21.332031 85.332031 21.332031 L 128 21.332031 C 139.785156 21.332031 149.332031 30.878906 149.332031 42.667969 Z M 64 213.332031 L 64 298.667969 C 64 310.453125 54.453125 320 42.667969 320 C 30.878906 320 21.332031 310.453125 21.332031 298.667969 L 21.332031 213.332031 C 21.332031 201.546875 30.878906 192 42.667969 192 C 54.453125 192 64 201.546875 64 213.332031 Z M 149.332031 469.332031 C 149.332031 481.121094 139.785156 490.667969 128 490.667969 L 85.332031 490.667969 C 49.972656 490.667969 21.332031 462.027344 21.332031 426.667969 L 21.332031 384 C 21.332031 372.214844 30.878906 362.667969 42.667969 362.667969 C 54.453125 362.667969 64 372.214844 64 384 L 64 426.667969 C 64 438.453125 73.546875 448 85.332031 448 L 128 448 C 139.785156 448 149.332031 457.546875 149.332031 469.332031 Z M 320 469.332031 C 320 481.121094 310.453125 490.667969 298.667969 490.667969 L 213.332031 490.667969 C 201.546875 490.667969 192 481.121094 192 469.332031 C 192 457.546875 201.546875 448 213.332031 448 L 298.667969 448 C 310.453125 448 320 457.546875 320 469.332031 Z M 490.667969 384 L 490.667969 426.667969 C 490.667969 462.027344 462.027344 490.667969 426.667969 490.667969 L 384 490.667969 C 372.214844 490.667969 362.667969 481.121094 362.667969 469.332031 C 362.667969 457.546875 372.214844 448 384 448 L 426.667969 448 C 438.453125 448 448 438.453125 448 426.667969 L 448 384 C 448 372.214844 457.546875 362.667969 469.332031 362.667969 C 481.121094 362.667969 490.667969 372.214844 490.667969 384 Z M 490.667969 213.332031 L 490.667969 298.667969 C 490.667969 310.453125 481.121094 320 469.332031 320 C 457.546875 320 448 310.453125 448 298.667969 L 448 213.332031 C 448 201.546875 457.546875 192 469.332031 192 C 481.121094 192 490.667969 201.546875 490.667969 213.332031 Z M 490.667969 85.332031 L 490.667969 128 C 490.667969 139.785156 481.121094 149.332031 469.332031 149.332031 C 457.546875 149.332031 448 139.785156 448 128 L 448 85.332031 C 448 73.546875 438.453125 64 426.667969 64 L 384 64 C 372.214844 64 362.667969 54.453125 362.667969 42.667969 C 362.667969 30.878906 372.214844 21.332031 384 21.332031 L 426.667969 21.332031 C 462.027344 21.332031 490.667969 49.972656 490.667969 85.332031 Z M 320 42.667969 C 320 54.453125 310.453125 64 298.667969 64 L 213.332031 64 C 201.546875 64 192 54.453125 192 42.667969 C 192 30.878906 201.546875 21.332031 213.332031 21.332031 L 298.667969 21.332031 C 310.453125 21.332031 320 30.878906 320 42.667969 Z M 341.332031 234.667969 L 277.332031 234.667969 L 277.332031 170.667969 C 277.332031 158.886719 267.78125 149.332031 256 149.332031 C 244.21875 149.332031 234.667969 158.886719 234.667969 170.667969 L 234.667969 234.667969 L 170.667969 234.667969 C 158.886719 234.667969 149.332031 244.21875 149.332031 256 C 149.332031 267.78125 158.886719 277.332031 170.667969 277.332031 L 234.667969 277.332031 L 234.667969 341.332031 C 234.667969 353.113281 244.21875 362.667969 256 362.667969 C 267.78125 362.667969 277.332031 353.113281 277.332031 341.332031 L 277.332031 277.332031 L 341.332031 277.332031 C 353.113281 277.332031 362.667969 267.78125 362.667969 256 C 362.667969 244.21875 353.113281 234.667969 341.332031 234.667969 Z M 341.332031 234.667969 "/>
  </g>
</svg>