<?xml version="1.0" encoding="UTF-8" standalone="yes"?>
<svg version="1.1" xmlns="http://www.w3.org/2000/svg" xmlns:xlink="http://www.w3.org/1999/xlink" x="0px" y="0px" viewBox="0 0 512 512" enable-background="new 0 0 512 512" xml:space="preserve">
  <g id="bounds" display="none"><rect display="inline" fill="none" width="512" height="512"/></g><g id="Layer_2">
    <path style=" stroke:none;fill-rule:nonzero;fill:rgb(0%,0%,0%);fill-opacity:1;" d="M 213.996094 90.558594 C 213.558594 95.886719 213.332031 101.257812 213.332031 106.667969 C 213.332031 212.542969 299.457031 298.667969 405.332031 298.667969 C 410.742188 298.667969 416.113281 298.449219 421.441406 298.003906 C 402.671875 371.867188 335.617188 426.667969 256 426.667969 C 161.894531 426.667969 85.332031 350.105469 85.332031 256 C 85.332031 176.382812 140.132812 109.328125 213.996094 90.558594 M 256 42.667969 C 138.179688 42.667969 42.667969 138.179688 42.667969 256 C 42.667969 373.824219 138.179688 469.332031 256 469.332031 C 373.824219 469.332031 469.332031 373.824219 469.332031 256 C 469.332031 251.238281 469.121094 246.535156 468.8125 241.84375 C 449.546875 250.90625 428.039062 256 405.332031 256 C 322.859375 256 256 189.140625 256 106.667969 C 256 83.960938 261.09375 62.453125 270.15625 43.1875 C 265.464844 42.878906 260.761719 42.667969 256 42.667969 Z M 256 42.667969 "/>
  </g>
</svg>