<?xml version="1.0" encoding="UTF-8" standalone="yes"?>
<svg version="1.1" xmlns="http://www.w3.org/2000/svg" xmlns:xlink="http://www.w3.org/1999/xlink" x="0px" y="0px" viewBox="0 0 512 512" enable-background="new 0 0 512 512" xml:space="preserve">
  <g id="bounds" display="none"><rect display="inline" fill="none" width="512" height="512"/></g><g id="Layer_2">
    <path style=" stroke:none;fill-rule:nonzero;fill:rgb(0%,0%,0%);fill-opacity:1;" d="M 505.75 240.910156 L 430.335938 165.488281 C 422.003906 157.15625 408.492188 157.15625 400.160156 165.488281 C 391.828125 173.820312 391.828125 187.332031 400.160156 195.660156 L 439.167969 234.667969 L 277.332031 234.667969 L 277.332031 72.84375 L 316.332031 111.839844 C 324.660156 120.171875 338.175781 120.171875 346.507812 111.839844 C 354.835938 103.507812 354.835938 90 346.507812 81.667969 L 271.082031 6.246094 C 262.753906 -2.085938 249.238281 -2.085938 240.910156 6.246094 L 165.488281 81.675781 C 157.15625 90.003906 157.15625 103.519531 165.488281 111.84375 C 173.820312 120.175781 187.328125 120.175781 195.652344 111.84375 L 234.667969 72.84375 L 234.667969 234.667969 L 72.835938 234.667969 L 111.839844 195.664062 C 120.171875 187.332031 120.171875 173.824219 111.839844 165.492188 C 103.507812 157.164062 89.996094 157.164062 81.664062 165.492188 L 6.246094 240.910156 C -2.085938 249.242188 -2.085938 262.746094 6.246094 271.082031 L 81.679688 346.511719 C 90.011719 354.84375 103.519531 354.84375 111.84375 346.511719 C 120.175781 338.1875 120.175781 324.675781 111.84375 316.347656 L 72.835938 277.332031 L 234.667969 277.332031 L 234.667969 439.167969 L 195.667969 400.160156 C 187.339844 391.835938 173.824219 391.835938 165.492188 400.160156 C 157.164062 408.492188 157.164062 422.003906 165.492188 430.335938 L 240.917969 505.761719 C 249.246094 514.085938 262.761719 514.085938 271.089844 505.761719 L 346.523438 430.332031 C 354.851562 422 354.851562 408.484375 346.523438 400.15625 C 338.191406 391.828125 324.675781 391.828125 316.347656 400.15625 L 277.332031 439.167969 L 277.332031 277.332031 L 439.164062 277.332031 L 400.160156 316.332031 C 391.828125 324.660156 391.828125 338.175781 400.160156 346.507812 C 408.492188 354.835938 422.003906 354.835938 430.335938 346.507812 L 505.761719 271.078125 C 514.085938 262.761719 514.085938 249.242188 505.75 240.910156 Z M 505.75 240.910156 "/>
  </g>
</svg>