<?xml version="1.0" encoding="UTF-8" standalone="yes"?>
<svg version="1.1" xmlns="http://www.w3.org/2000/svg" xmlns:xlink="http://www.w3.org/1999/xlink" x="0px" y="0px" viewBox="0 0 512 512" enable-background="new 0 0 512 512" xml:space="preserve">
  <g id="bounds" display="none"><rect display="inline" fill="none" width="512" height="512"/></g><g id="Layer_2">
    <path style=" stroke:none;fill-rule:nonzero;fill:rgb(0%,0%,0%);fill-opacity:1;" d="M 85.332031 170.667969 C 49.972656 170.667969 21.332031 200.199219 21.332031 235.558594 L 21.332031 277.332031 C 21.332031 312.691406 49.972656 341.332031 85.332031 341.332031 L 128 341.332031 L 234.667969 448 L 234.667969 64 L 128 170.667969 Z M 158.164062 200.835938 L 191.996094 166.171875 L 192 165.332031 L 192 345.003906 L 158.171875 311.164062 L 145.664062 298.667969 L 85.332031 298.667969 C 73.566406 298.667969 64 289.097656 64 277.332031 L 64 235.558594 C 64 223.507812 73.769531 213.332031 85.332031 213.332031 L 145.664062 213.332031 Z M 463.082031 304.917969 C 471.414062 313.246094 471.414062 326.757812 463.082031 335.082031 C 458.917969 339.246094 453.457031 341.332031 448 341.332031 C 442.542969 341.332031 437.082031 339.246094 432.917969 335.082031 L 384 286.171875 L 335.082031 335.082031 C 330.917969 339.246094 325.457031 341.332031 320 341.332031 C 314.542969 341.332031 309.082031 339.246094 304.917969 335.082031 C 296.585938 326.753906 296.585938 313.242188 304.917969 304.917969 L 353.828125 256 L 304.917969 207.082031 C 296.585938 198.753906 296.585938 185.242188 304.917969 176.917969 C 313.246094 168.585938 326.757812 168.585938 335.082031 176.917969 L 384 225.828125 L 432.917969 176.917969 C 441.246094 168.585938 454.757812 168.585938 463.082031 176.917969 C 471.414062 185.246094 471.414062 198.757812 463.082031 207.082031 L 414.171875 256 Z M 463.082031 304.917969 "/>
  </g>
</svg>