<?xml version="1.0" encoding="UTF-8" standalone="yes"?>
<svg version="1.1" xmlns="http://www.w3.org/2000/svg" xmlns:xlink="http://www.w3.org/1999/xlink" x="0px" y="0px" viewBox="0 0 512 512" enable-background="new 0 0 512 512" xml:space="preserve">
  <g id="bounds" display="none"><rect display="inline" fill="none" width="512" height="512"/></g><g id="Layer_2">
    <path style=" stroke:none;fill-rule:nonzero;fill:rgb(0%,0%,0%);fill-opacity:1;" d="M 469.332031 256 C 457.550781 256 448 265.550781 448 277.332031 L 448 426.667969 C 448 438.453125 438.453125 448 426.667969 448 L 85.332031 448 C 73.546875 448 64 438.453125 64 426.667969 L 64 85.332031 C 64 73.546875 73.546875 64 85.332031 64 L 234.667969 64 C 246.449219 64 256 54.449219 256 42.667969 C 256 30.886719 246.449219 21.332031 234.667969 21.332031 L 85.332031 21.332031 C 49.988281 21.332031 21.332031 49.988281 21.332031 85.332031 L 21.332031 426.667969 C 21.332031 462.011719 49.988281 490.667969 85.332031 490.667969 L 426.667969 490.667969 C 462.011719 490.667969 490.667969 462.011719 490.667969 426.667969 L 490.667969 277.332031 C 490.667969 265.550781 481.113281 256 469.332031 256 Z M 490.667969 42.667969 L 490.667969 170.667969 C 490.667969 182.449219 481.113281 192 469.332031 192 C 457.550781 192 448 182.449219 448 170.667969 L 448 94.164062 L 273.222656 268.9375 C 264.894531 277.269531 251.386719 277.269531 243.0625 268.9375 C 234.730469 260.613281 234.730469 247.105469 243.0625 238.773438 L 417.828125 64 L 341.332031 64 C 329.550781 64 320 54.449219 320 42.667969 C 320 30.886719 329.550781 21.332031 341.332031 21.332031 L 469.332031 21.332031 C 481.113281 21.332031 490.667969 30.886719 490.667969 42.667969 Z M 490.667969 42.667969 "/>
  </g>
</svg>