<?xml version="1.0" encoding="UTF-8" standalone="yes"?>
<svg version="1.1" xmlns="http://www.w3.org/2000/svg" xmlns:xlink="http://www.w3.org/1999/xlink" x="0px" y="0px" viewBox="0 0 512 512" enable-background="new 0 0 512 512" xml:space="preserve">
  <g id="bounds" display="none"><rect display="inline" fill="none" width="512" height="512"/></g><g id="Layer_2">
    <path style=" stroke:none;fill-rule:nonzero;fill:rgb(0%,0%,0%);fill-opacity:1;" d="M 134.25 164.421875 C 125.921875 156.089844 125.921875 142.582031 134.25 134.25 L 240.917969 27.585938 C 249.246094 19.253906 262.757812 19.253906 271.082031 27.585938 L 377.75 134.25 C 386.078125 142.582031 386.078125 156.089844 377.75 164.421875 C 373.585938 168.585938 368.121094 170.667969 362.667969 170.667969 C 357.210938 170.667969 351.75 168.585938 347.585938 164.421875 L 277.332031 94.171875 L 277.332031 341.332031 C 277.332031 353.113281 267.78125 362.667969 256 362.667969 C 244.21875 362.667969 234.667969 353.113281 234.667969 341.332031 L 234.667969 94.171875 L 164.414062 164.421875 C 156.089844 172.746094 142.574219 172.746094 134.25 164.421875 Z M 469.332031 320 C 457.550781 320 448 329.550781 448 341.332031 L 448 426.667969 C 448 438.425781 438.683594 448 427.226562 448 L 85.332031 448 C 73.566406 448 64 438.425781 64 426.667969 L 64 341.332031 C 64 329.550781 54.449219 320 42.667969 320 C 30.886719 320 21.332031 329.550781 21.332031 341.332031 L 21.332031 426.667969 C 21.332031 435.300781 23.023438 443.675781 26.367188 451.585938 C 29.589844 459.210938 34.207031 466.054688 40.074219 471.914062 C 45.945312 477.792969 52.789062 482.40625 60.410156 485.621094 C 68.320312 488.96875 76.703125 490.667969 85.332031 490.667969 L 427.226562 490.667969 C 435.8125 490.667969 444.160156 488.960938 452.015625 485.59375 C 459.578125 482.347656 466.363281 477.71875 472.179688 471.824219 C 477.980469 465.945312 482.523438 459.105469 485.707031 451.492188 C 489.003906 443.617188 490.667969 435.257812 490.667969 426.667969 L 490.667969 341.332031 C 490.667969 329.550781 481.113281 320 469.332031 320 Z M 469.332031 320 "/>
  </g>
</svg>