<?xml version="1.0" encoding="UTF-8" standalone="yes"?>
<svg version="1.1" xmlns="http://www.w3.org/2000/svg" xmlns:xlink="http://www.w3.org/1999/xlink" x="0px" y="0px" viewBox="0 0 512 512" enable-background="new 0 0 512 512" xml:space="preserve">
  <g id="bounds" display="none"><rect display="inline" fill="none" width="512" height="512"/></g><g id="Layer_2">
    <path style=" stroke:none;fill-rule:nonzero;fill:rgb(0%,0%,0%);fill-opacity:1;" d="M 298.667969 469.332031 L 106.667969 469.332031 C 94.878906 469.332031 85.332031 459.785156 85.332031 448 L 85.332031 89.054688 C 60.492188 97.855469 42.667969 121.484375 42.667969 149.339844 L 42.667969 448.003906 C 42.667969 483.347656 71.324219 512.003906 106.667969 512.003906 L 320 512.003906 C 347.855469 512.003906 371.476562 494.175781 380.28125 469.339844 L 298.667969 469.339844 Z M 405.332031 0 L 192 0 C 156.65625 0 128 28.660156 128 64 L 128 362.667969 C 128 398.015625 156.65625 426.671875 192 426.671875 L 405.332031 426.671875 C 440.675781 426.671875 469.332031 398.015625 469.332031 362.667969 L 469.332031 64 C 469.332031 28.660156 440.675781 0 405.332031 0 Z M 426.667969 362.667969 C 426.667969 374.457031 417.121094 384.003906 405.332031 384.003906 L 192 384.003906 C 180.21875 384.003906 170.667969 374.457031 170.667969 362.667969 L 170.667969 64 C 170.667969 52.214844 180.21875 42.667969 192 42.667969 L 405.332031 42.667969 C 417.121094 42.667969 426.667969 52.214844 426.667969 64 Z M 426.667969 362.667969 "/>
  </g>
</svg>