<?xml version="1.0" encoding="UTF-8" standalone="yes"?>
<svg version="1.1" xmlns="http://www.w3.org/2000/svg" xmlns:xlink="http://www.w3.org/1999/xlink" x="0px" y="0px" viewBox="0 0 512 512" enable-background="new 0 0 512 512" xml:space="preserve">
  <g id="bounds" display="none"><rect display="inline" fill="none" width="512" height="512"/></g><g id="Layer_2">
    <path style=" stroke:none;fill-rule:nonzero;fill:rgb(0%,0%,0%);fill-opacity:1;" d="M 405.332031 21.332031 L 213.332031 21.332031 C 142.640625 21.332031 85.332031 78.640625 85.332031 149.332031 C 85.332031 220.027344 142.640625 277.332031 213.332031 277.332031 L 298.667969 277.332031 L 298.667969 469.332031 C 298.667969 481.113281 308.21875 490.667969 320 490.667969 C 331.78125 490.667969 341.332031 481.113281 341.332031 469.332031 L 341.332031 64 L 384 64 L 384 469.332031 C 384 481.113281 393.550781 490.667969 405.332031 490.667969 C 417.113281 490.667969 426.667969 481.113281 426.667969 469.332031 L 426.667969 42.667969 C 426.667969 30.886719 417.113281 21.332031 405.332031 21.332031 Z M 128 149.332031 C 128 102.207031 166.207031 64 213.332031 64 L 298.667969 64 L 298.667969 234.667969 L 213.332031 234.667969 C 166.207031 234.667969 128 196.457031 128 149.332031 Z M 128 149.332031 "/>
  </g>
</svg>