<?xml version="1.0" encoding="UTF-8" standalone="yes"?>
<svg version="1.1" xmlns="http://www.w3.org/2000/svg" xmlns:xlink="http://www.w3.org/1999/xlink" x="0px" y="0px" viewBox="0 0 512 512" enable-background="new 0 0 512 512" xml:space="preserve">
  <g id="bounds" display="none"><rect display="inline" fill="none" width="512" height="512"/></g><g id="Layer_2">
    <path style=" stroke:none;fill-rule:nonzero;fill:rgb(0%,0%,0%);fill-opacity:1;" d="M 256 21.332031 C 126.398438 21.332031 21.332031 126.398438 21.332031 256 C 21.332031 385.605469 126.398438 490.667969 256 490.667969 C 385.605469 490.667969 490.667969 385.605469 490.667969 256 C 490.667969 126.398438 385.605469 21.332031 256 21.332031 Z M 446.789062 234.667969 L 277.332031 234.667969 L 277.332031 65.214844 C 366.324219 75.050781 436.949219 145.679688 446.789062 234.667969 Z M 256 448 C 149.960938 448 64 362.039062 64 256 C 64 157.171875 138.671875 75.824219 234.667969 65.214844 L 234.667969 277.332031 L 446.792969 277.332031 C 436.175781 373.324219 354.820312 448 256 448 Z M 256 448 "/>
  </g>
</svg>