<?xml version="1.0" encoding="UTF-8" standalone="yes"?>
<svg version="1.1" xmlns="http://www.w3.org/2000/svg" xmlns:xlink="http://www.w3.org/1999/xlink" x="0px" y="0px" viewBox="0 0 512 512" enable-background="new 0 0 512 512" xml:space="preserve">
  <g id="bounds" display="none"><rect display="inline" fill="none" width="512" height="512"/></g><g id="Layer_2">
    <path style=" stroke:none;fill-rule:nonzero;fill:rgb(0%,0%,0%);fill-opacity:1;" d="M 256 21.332031 C 142.980469 21.332031 21.332031 48.039062 21.332031 106.667969 L 21.332031 405.332031 C 21.332031 463.960938 142.980469 490.667969 256 490.667969 C 369.019531 490.667969 490.667969 463.960938 490.667969 405.332031 L 490.667969 106.667969 C 490.667969 48.039062 369.019531 21.332031 256 21.332031 Z M 256 64 C 379.675781 64 443.625 94.59375 447.925781 106.667969 C 443.625 118.742188 379.675781 149.332031 256 149.332031 C 132.324219 149.332031 68.375 118.742188 64.070312 106.667969 C 68.375 94.59375 132.324219 64 256 64 Z M 64 158.523438 C 109.402344 181.273438 184.410156 192 256 192 C 327.59375 192 402.601562 181.265625 448.003906 158.511719 L 448.015625 255.734375 C 444.632812 267.589844 380.660156 298.671875 256 298.671875 C 131.199219 298.671875 67.222656 267.519531 64 256.003906 Z M 256 448 C 131.199219 448 67.222656 416.847656 64 405.332031 L 64 307.855469 C 109.402344 330.609375 184.410156 341.332031 256 341.332031 C 327.605469 341.332031 402.625 330.597656 448.019531 307.835938 L 448.03125 405.023438 C 444.777344 416.847656 380.800781 448 256 448 Z M 256 448 "/>
  </g>
</svg>