<?xml version="1.0" encoding="UTF-8" standalone="yes"?>
<svg version="1.1" xmlns="http://www.w3.org/2000/svg" xmlns:xlink="http://www.w3.org/1999/xlink" x="0px" y="0px" viewBox="0 0 512 512" enable-background="new 0 0 512 512" xml:space="preserve">
  <g id="bounds" display="none"><rect display="inline" fill="none" width="512" height="512"/></g><g id="Layer_2">
    <path style=" stroke:none;fill-rule:nonzero;fill:rgb(0%,0%,0%);fill-opacity:1;" d="M 384 298.667969 C 358.335938 298.667969 335.359375 310.0625 319.707031 328.003906 L 211.429688 273.867188 C 212.65625 268.105469 213.332031 262.121094 213.332031 256 C 213.332031 249.878906 212.65625 243.894531 211.429688 238.132812 L 319.710938 183.996094 C 335.355469 201.941406 358.335938 213.332031 384 213.332031 C 431.125 213.332031 469.332031 175.125 469.332031 128 C 469.332031 80.875 431.125 42.667969 384 42.667969 C 336.875 42.667969 298.667969 80.875 298.667969 128 C 298.667969 134.121094 299.34375 140.105469 300.570312 145.867188 L 192.292969 200.003906 C 176.644531 182.058594 153.675781 170.667969 128 170.667969 C 80.875 170.667969 42.667969 208.875 42.667969 256 C 42.667969 303.125 80.875 341.332031 128 341.332031 C 153.675781 341.332031 176.640625 329.9375 192.292969 311.996094 L 300.570312 366.132812 C 299.34375 371.894531 298.667969 377.878906 298.667969 384 C 298.667969 431.125 336.875 469.332031 384 469.332031 C 431.125 469.332031 469.332031 431.125 469.332031 384 C 469.332031 336.875 431.125 298.667969 384 298.667969 Z M 384 85.332031 C 407.5625 85.332031 426.667969 104.4375 426.667969 128 C 426.667969 151.5625 407.5625 170.667969 384 170.667969 C 360.4375 170.667969 341.332031 151.5625 341.332031 128 C 341.332031 104.4375 360.4375 85.332031 384 85.332031 Z M 128 298.667969 C 104.4375 298.667969 85.332031 279.5625 85.332031 256 C 85.332031 232.4375 104.4375 213.332031 128 213.332031 C 151.5625 213.332031 170.667969 232.4375 170.667969 256 C 170.667969 279.5625 151.5625 298.667969 128 298.667969 Z M 384 426.667969 C 360.4375 426.667969 341.332031 407.5625 341.332031 384 C 341.332031 360.4375 360.4375 341.332031 384 341.332031 C 407.5625 341.332031 426.667969 360.4375 426.667969 384 C 426.667969 407.5625 407.5625 426.667969 384 426.667969 Z M 384 426.667969 "/>
  </g>
</svg>