<?xml version="1.0" encoding="UTF-8" standalone="yes"?>
<svg version="1.1" xmlns="http://www.w3.org/2000/svg" xmlns:xlink="http://www.w3.org/1999/xlink" x="0px" y="0px" viewBox="0 0 512 512" enable-background="new 0 0 512 512" xml:space="preserve">
  <g id="bounds" display="none"><rect display="inline" fill="none" width="512" height="512"/></g><g id="Layer_2">
    <path style=" stroke:none;fill-rule:nonzero;fill:rgb(0%,0%,0%);fill-opacity:1;" d="M 426.667969 21.332031 L 85.332031 21.332031 C 49.972656 21.332031 21.332031 49.972656 21.332031 85.332031 L 21.332031 426.667969 C 21.332031 462.027344 49.972656 490.667969 85.332031 490.667969 L 426.667969 490.667969 C 462.027344 490.667969 490.667969 462.027344 490.667969 426.667969 L 490.667969 85.332031 C 490.667969 49.972656 462.027344 21.332031 426.667969 21.332031 Z M 448 426.667969 C 448 438.453125 438.453125 448 426.667969 448 L 85.332031 448 C 73.550781 448 64 438.453125 64 426.667969 L 64 85.332031 C 64 73.550781 73.550781 64 85.332031 64 L 426.667969 64 C 438.453125 64 448 73.550781 448 85.332031 Z M 326.25 188.113281 L 235.738281 278.628906 L 190.484375 233.375 C 182.15625 225.046875 168.644531 225.046875 160.316406 233.375 C 151.984375 241.707031 151.984375 255.214844 160.316406 263.542969 L 220.640625 323.878906 C 228.976562 332.207031 242.484375 332.207031 250.816406 323.878906 L 356.410156 218.28125 C 364.746094 209.960938 364.746094 196.453125 356.421875 188.117188 C 348.089844 179.78125 334.582031 179.78125 326.25 188.113281 Z M 326.25 188.113281 "/>
  </g>
</svg>