<?xml version="1.0" encoding="UTF-8" standalone="yes"?>
<svg version="1.1" xmlns="http://www.w3.org/2000/svg" xmlns:xlink="http://www.w3.org/1999/xlink" x="0px" y="0px" viewBox="0 0 512 512" enable-background="new 0 0 512 512" xml:space="preserve">
  <g id="bounds" display="none"><rect display="inline" fill="none" width="512" height="512"/></g><g id="Layer_2">
    <path style=" stroke:none;fill-rule:nonzero;fill:rgb(0%,0%,0%);fill-opacity:1;" d="M 426.667969 21.332031 L 85.332031 21.332031 C 49.972656 21.332031 21.332031 49.972656 21.332031 85.332031 L 21.332031 426.667969 C 21.332031 462.027344 49.972656 490.667969 85.332031 490.667969 L 426.667969 490.667969 C 462.027344 490.667969 490.667969 462.027344 490.667969 426.667969 L 490.667969 85.332031 C 490.667969 49.972656 462.027344 21.332031 426.667969 21.332031 Z M 448 426.667969 C 448 438.453125 438.453125 448 426.667969 448 L 85.332031 448 C 73.546875 448 64 438.453125 64 426.667969 L 64 85.332031 C 64 73.546875 73.546875 64 85.332031 64 L 426.667969 64 C 438.453125 64 448 73.546875 448 85.332031 Z M 331.429688 180.570312 C 323.097656 172.238281 309.578125 172.238281 301.253906 180.570312 L 256 225.828125 L 210.753906 180.574219 C 202.421875 172.246094 188.90625 172.246094 180.574219 180.574219 C 172.246094 188.90625 172.246094 202.433594 180.574219 210.753906 L 225.828125 256 L 180.574219 301.246094 C 172.246094 309.578125 172.246094 323.09375 180.574219 331.425781 C 188.90625 339.753906 202.421875 339.753906 210.753906 331.425781 L 256 286.171875 L 301.246094 331.425781 C 309.578125 339.753906 323.09375 339.753906 331.425781 331.425781 C 339.753906 323.09375 339.753906 309.5625 331.425781 301.246094 L 286.171875 256 L 331.425781 210.753906 C 339.753906 202.421875 339.753906 188.90625 331.429688 180.570312 Z M 331.429688 180.570312 "/>
  </g>
</svg>