<?xml version="1.0" encoding="UTF-8" standalone="yes"?>
<svg version="1.1" xmlns="http://www.w3.org/2000/svg" xmlns:xlink="http://www.w3.org/1999/xlink" x="0px" y="0px" viewBox="0 0 512 512" enable-background="new 0 0 512 512" xml:space="preserve">
  <g id="bounds" display="none"><rect display="inline" fill="none" width="512" height="512"/></g><g id="Layer_2">
    <path style=" stroke:none;fill-rule:nonzero;fill:rgb(0%,0%,0%);fill-opacity:1;" d="M 277.332031 21.332031 L 277.332031 64 C 277.332031 75.78125 267.78125 85.332031 256 85.332031 C 244.21875 85.332031 234.667969 75.78125 234.667969 64 L 234.667969 21.332031 C 234.667969 9.550781 244.21875 0 256 0 C 267.78125 0 277.332031 9.550781 277.332031 21.332031 Z M 256 426.667969 C 244.21875 426.667969 234.667969 436.21875 234.667969 448 L 234.667969 490.667969 C 234.667969 502.449219 244.21875 512 256 512 C 267.78125 512 277.332031 502.449219 277.332031 490.667969 L 277.332031 448 C 277.332031 436.21875 267.78125 426.667969 256 426.667969 Z M 74.980469 74.980469 C 66.652344 83.3125 66.652344 96.820312 74.980469 105.152344 L 105.152344 135.324219 C 113.484375 143.652344 126.992188 143.652344 135.324219 135.324219 C 143.652344 126.992188 143.652344 113.476562 135.324219 105.152344 L 105.152344 74.980469 C 96.816406 66.652344 83.3125 66.652344 74.980469 74.980469 Z M 376.675781 376.675781 C 368.347656 385.007812 368.347656 398.523438 376.675781 406.847656 L 406.847656 437.019531 C 415.179688 445.347656 428.6875 445.347656 437.019531 437.019531 C 445.347656 428.6875 445.347656 415.179688 437.019531 406.847656 L 406.847656 376.675781 C 398.515625 368.347656 385.007812 368.347656 376.675781 376.675781 Z M 0 256 C 0 267.78125 9.550781 277.332031 21.332031 277.332031 L 64 277.332031 C 75.78125 277.332031 85.332031 267.78125 85.332031 256 C 85.332031 244.21875 75.78125 234.667969 64 234.667969 L 21.332031 234.667969 C 9.550781 234.667969 0 244.21875 0 256 Z M 426.667969 256 C 426.667969 267.78125 436.21875 277.332031 448 277.332031 L 490.667969 277.332031 C 502.449219 277.332031 512 267.78125 512 256 C 512 244.21875 502.449219 234.667969 490.667969 234.667969 L 448 234.667969 C 436.21875 234.667969 426.667969 244.21875 426.667969 256 Z M 74.980469 437.019531 C 83.3125 445.347656 96.820312 445.347656 105.152344 437.019531 L 135.316406 406.847656 C 143.648438 398.515625 143.648438 385.007812 135.316406 376.675781 C 126.988281 368.347656 113.484375 368.347656 105.152344 376.675781 L 74.980469 406.847656 C 66.652344 415.183594 66.652344 428.6875 74.980469 437.019531 Z M 376.675781 135.324219 C 385.007812 143.652344 398.515625 143.652344 406.847656 135.324219 L 437.019531 105.152344 C 445.347656 96.820312 445.347656 83.3125 437.019531 74.980469 C 428.6875 66.652344 415.179688 66.652344 406.847656 74.980469 L 376.675781 105.152344 C 368.347656 113.476562 368.347656 126.992188 376.675781 135.324219 Z M 384 256 C 384 326.691406 326.691406 384 256 384 C 185.308594 384 128 326.691406 128 256 C 128 185.308594 185.308594 128 256 128 C 326.691406 128 384 185.308594 384 256 Z M 341.332031 256 C 341.332031 208.871094 303.128906 170.667969 256 170.667969 C 208.871094 170.667969 170.667969 208.871094 170.667969 256 C 170.667969 303.128906 208.871094 341.332031 256 341.332031 C 303.128906 341.332031 341.332031 303.128906 341.332031 256 Z M 341.332031 256 "/>
  </g>
</svg>