<?xml version="1.0" encoding="UTF-8" standalone="yes"?>
<svg version="1.1" xmlns="http://www.w3.org/2000/svg" xmlns:xlink="http://www.w3.org/1999/xlink" x="0px" y="0px" viewBox="0 0 512 512" enable-background="new 0 0 512 512" xml:space="preserve">
  <g id="bounds" display="none"><rect display="inline" fill="none" width="512" height="512"/></g><g id="Layer_2">
    <path style=" stroke:none;fill-rule:nonzero;fill:rgb(0%,0%,0%);fill-opacity:1;" d="M 256 21.332031 C 126.394531 21.332031 21.332031 126.394531 21.332031 256 C 21.332031 385.605469 126.394531 490.667969 256 490.667969 C 385.605469 490.667969 490.667969 385.605469 490.667969 256 C 490.667969 126.394531 385.605469 21.332031 256 21.332031 Z M 256 448 C 149.960938 448 64 362.039062 64 256 C 64 149.960938 149.960938 64 256 64 C 362.039062 64 448 149.960938 448 256 C 448 362.039062 362.039062 448 256 448 Z M 256 106.667969 C 173.523438 106.667969 106.667969 173.523438 106.667969 256 C 106.667969 338.476562 173.523438 405.332031 256 405.332031 C 338.476562 405.332031 405.332031 338.476562 405.332031 256 C 405.332031 173.523438 338.476562 106.667969 256 106.667969 Z M 256 362.667969 C 197.089844 362.667969 149.332031 314.910156 149.332031 256 C 149.332031 197.089844 197.089844 149.332031 256 149.332031 C 314.910156 149.332031 362.667969 197.089844 362.667969 256 C 362.667969 314.910156 314.910156 362.667969 256 362.667969 Z M 256 192 C 220.65625 192 192 220.65625 192 256 C 192 291.34375 220.65625 320 256 320 C 291.34375 320 320 291.34375 320 256 C 320 220.65625 291.34375 192 256 192 Z M 256 277.332031 C 244.21875 277.332031 234.667969 267.78125 234.667969 256 C 234.667969 244.21875 244.21875 234.667969 256 234.667969 C 267.78125 234.667969 277.332031 244.21875 277.332031 256 C 277.332031 267.78125 267.78125 277.332031 256 277.332031 Z M 256 277.332031 "/>
  </g>
</svg>