<?xml version="1.0" encoding="UTF-8" standalone="yes"?>
<svg version="1.1" xmlns="http://www.w3.org/2000/svg" xmlns:xlink="http://www.w3.org/1999/xlink" x="0px" y="0px" viewBox="0 0 512 512" enable-background="new 0 0 512 512" xml:space="preserve">
  <g id="bounds" display="none"><rect display="inline" fill="none" width="512" height="512"/></g><g id="Layer_2">
    <path style=" stroke:none;fill-rule:nonzero;fill:rgb(0%,0%,0%);fill-opacity:1;" d="M 320 304.15625 L 320 74.667969 C 320 33.429688 286.570312 0 245.332031 0 C 204.097656 0 170.667969 33.429688 170.667969 74.667969 L 170.667969 304.15625 C 144.609375 325.664062 128 358.230469 128 394.667969 C 128 459.464844 180.535156 512 245.332031 512 C 310.132812 512 362.667969 459.464844 362.667969 394.667969 C 362.667969 358.230469 346.058594 325.664062 320 304.15625 Z M 245.332031 469.332031 C 204.097656 469.332031 170.667969 435.902344 170.667969 394.667969 C 170.667969 364.894531 188.121094 339.273438 213.332031 327.28125 L 213.332031 74.667969 C 213.332031 57.003906 227.667969 42.667969 245.332031 42.667969 C 262.996094 42.667969 277.332031 57.003906 277.332031 74.667969 L 277.332031 327.28125 C 302.542969 339.273438 320 364.894531 320 394.667969 C 320 435.902344 286.570312 469.332031 245.332031 469.332031 Z M 245.332031 469.332031 "/>
  </g>
</svg>