<?xml version="1.0" encoding="UTF-8" standalone="yes"?>
<svg version="1.1" xmlns="http://www.w3.org/2000/svg" xmlns:xlink="http://www.w3.org/1999/xlink" x="0px" y="0px" viewBox="0 0 512 512" enable-background="new 0 0 512 512" xml:space="preserve">
  <g id="bounds" display="none"><rect display="inline" fill="none" width="512" height="512"/></g><g id="Layer_2">
    <path style=" stroke:none;fill-rule:nonzero;fill:rgb(0%,0%,0%);fill-opacity:1;" d="M 448 117.332031 L 362.667969 117.332031 L 362.667969 96 C 362.667969 60.640625 334.027344 32 298.667969 32 L 213.332031 32 C 177.972656 32 149.332031 60.640625 149.332031 96 L 149.332031 117.332031 L 64 117.332031 C 52.21875 117.332031 42.667969 126.886719 42.667969 138.667969 C 42.667969 150.449219 52.21875 160 64 160 L 85.332031 160 L 85.332031 416 C 85.332031 451.359375 113.972656 480 149.332031 480 L 362.667969 480 C 398.027344 480 426.667969 451.359375 426.667969 416 L 426.667969 160 L 448 160 C 459.78125 160 469.332031 150.449219 469.332031 138.667969 C 469.332031 126.886719 459.78125 117.332031 448 117.332031 Z M 192 96 C 192 84.214844 201.546875 74.667969 213.332031 74.667969 L 298.667969 74.667969 C 310.453125 74.667969 320 84.214844 320 96 L 320 117.332031 L 192 117.332031 Z M 384 416 C 384 427.785156 374.453125 437.332031 362.667969 437.332031 L 149.332031 437.332031 C 137.546875 437.332031 128 427.785156 128 416 L 128 160 L 384 160 Z M 384 416 "/>
  </g>
</svg>