<?xml version="1.0" encoding="UTF-8" standalone="yes"?>
<svg version="1.1" xmlns="http://www.w3.org/2000/svg" xmlns:xlink="http://www.w3.org/1999/xlink" x="0px" y="0px" viewBox="0 0 512 512" enable-background="new 0 0 512 512" xml:space="preserve">
  <g id="bounds" display="none"><rect display="inline" fill="none" width="512" height="512"/></g><g id="Layer_2">
    <path style=" stroke:none;fill-rule:nonzero;fill:rgb(0%,0%,0%);fill-opacity:1;" d="M 384 384 C 372.21875 384 362.667969 393.550781 362.667969 405.332031 C 362.667969 428.894531 343.5625 448 320 448 C 296.4375 448 277.332031 428.894531 277.332031 405.332031 L 277.332031 277.332031 L 512 277.332031 C 512 262.792969 510.785156 248.542969 508.457031 234.667969 C 488.144531 113.589844 382.847656 21.332031 256 21.332031 C 129.152344 21.332031 23.851562 113.589844 3.542969 234.667969 C 1.210938 248.542969 0 262.792969 0 277.332031 L 234.667969 277.332031 L 234.667969 405.332031 C 234.667969 452.464844 272.871094 490.667969 320 490.667969 C 367.128906 490.667969 405.332031 452.464844 405.332031 405.332031 C 405.332031 393.550781 395.78125 384 384 384 Z M 256 64 C 359.210938 64 445.300781 137.289062 465.0625 234.667969 L 46.933594 234.667969 C 66.699219 137.289062 152.789062 64 256 64 Z M 256 64 "/>
  </g>
</svg>