<?xml version="1.0" encoding="UTF-8" standalone="yes"?>
<svg version="1.1" xmlns="http://www.w3.org/2000/svg" xmlns:xlink="http://www.w3.org/1999/xlink" x="0px" y="0px" viewBox="0 0 512 512" enable-background="new 0 0 512 512" xml:space="preserve">
  <g id="bounds" display="none"><rect display="inline" fill="none" width="512" height="512"/></g><g id="Layer_2">
    <path style=" stroke:none;fill-rule:nonzero;fill:rgb(0%,0%,0%);fill-opacity:1;" d="M 42.667969 362.667969 L 42.667969 64 C 42.667969 28.652344 71.316406 0 106.667969 0 L 405.332031 0 C 440.683594 0 469.332031 28.652344 469.332031 64 L 469.332031 362.667969 C 469.332031 398.015625 440.683594 426.667969 405.332031 426.667969 L 320 426.667969 L 320 384 L 405.332031 384 C 417.113281 384 426.667969 374.449219 426.667969 362.667969 L 426.667969 64 C 426.667969 52.21875 417.113281 42.667969 405.332031 42.667969 L 106.667969 42.667969 C 94.886719 42.667969 85.332031 52.21875 85.332031 64 L 85.332031 362.667969 C 85.332031 374.449219 94.886719 384 106.667969 384 L 192 384 L 192 426.667969 L 106.667969 426.667969 C 71.324219 426.667969 42.667969 398.015625 42.667969 362.667969 Z M 155.585938 249.75 C 163.914062 258.078125 177.425781 258.078125 185.75 249.75 L 234.667969 200.835938 L 234.667969 490.667969 C 234.667969 502.449219 244.21875 512 256 512 C 267.78125 512 277.332031 502.449219 277.332031 490.667969 L 277.332031 200.835938 L 326.25 249.75 C 334.582031 258.078125 348.089844 258.078125 356.414062 249.75 C 364.746094 241.417969 364.746094 227.910156 356.414062 219.585938 L 271.082031 134.25 C 267.082031 130.25 261.660156 128 256 128 C 250.339844 128 244.917969 130.25 240.917969 134.25 L 155.585938 219.585938 C 147.246094 227.910156 147.246094 241.425781 155.585938 249.75 Z M 155.585938 249.75 "/>
  </g>
</svg>